<svg width="24" height="24" fill="none" xmlns="http://www.w3.org/2000/svg"><circle cx="12" cy="12" r="12" fill="#71BE44"/><path fill-rule="evenodd" clip-rule="evenodd" d="M16.999 4.881a1.916 1.916 0 0 0-.23-.08 10.953 10.953 0 0 0-4.386-.91c-5.04 0-8.707 3.476-8.707 8.087 0 4.525 3.517 7.914 8.793 7.914 1.653 0 3.34-.337 4.702-.891v-6.224a1.62 1.62 0 0 0-1.748-1.614h-2.599c-.037-.003-.073-.006-.11-.007a1.62 1.62 0 0 0-.017 3.24h.008v.005h.708v1.652a4.075 4.075 0 0 1-.944.107c-.872 0-1.635-.195-2.268-.534h-.17v-.095c-1.238-.741-1.937-2.06-1.937-3.553 0-2.338 1.694-4.161 4.46-4.161.99 0 2.02.24 2.991.626l.005-.011a1.918 1.918 0 0 0 1.449-3.55" fill="#fff"/></svg>