<svg width="321" height="187" viewbox="0 0 321 187" xmlns="http://www.w3.org/2000/svg">
  <defs>
    <linearGradient x1="50%" y1="100%" x2="50%" y2="0%" id="a">
      <stop stop-color="gray" stop-opacity=".3" offset="0%"/>
      <stop stop-color="gray" stop-opacity=".1" offset="54%"/>
      <stop stop-color="gray" stop-opacity=".1" offset="100%"/>
    </linearGradient>
    <linearGradient x1="53.7%" y1="100.2%" x2="46.2%" y2="-.8%" id="b">
      <stop stop-color="gray" stop-opacity=".3" offset="0%"/>
      <stop stop-color="gray" stop-opacity=".1" offset="54%"/>
      <stop stop-color="gray" stop-opacity=".1" offset="100%"/>
    </linearGradient>
    <linearGradient x1="50%" y1="100%" x2="50%" y2="0%" id="c">
      <stop stop-color="gray" stop-opacity=".3" offset="0%"/>
      <stop stop-color="gray" stop-opacity=".1" offset="54%"/>
      <stop stop-color="gray" stop-opacity=".1" offset="100%"/>
    </linearGradient>
  </defs>
  <g fill="none" fill-rule="evenodd">
    <path d="M185.5 38.5c-20.1.2-39.5-4.5-58-9.8C109 23.5 90.7 17.6 71 15.2c-12.7-1.6-27.2-1.3-37.1 4.7-9.7 5.8-12.5 15.3-13.9 24-1 6.6-1.6 13.6 2.2 19.6 2.5 4.1 7 7.6 10.1 11.5 10.9 13.8 4.1 31.6-6.7 45.9-5 6.7-11 13-14.8 20.2-3.8 7-5.4 15-1.6 22 3.8 6.8 12.4 11.8 21.6 15.1 18.8 6.8 40.7 8.2 62.1 8.6 47.3 1 94.6-2 141.9-4.9 17.5-1 35-2.1 52.2-5 9.5-1.6 19.3-4 26-9 8.7-6.5 10.5-16.9 4.4-24.3-10.4-12.5-37.9-14.6-45.3-28.2-4-7.4-.4-16 4.9-23.2 11.3-15.5 30.8-29.5 31.2-46.8.4-11.8-9.6-23.4-24.6-28.4-15.7-5.3-37.2-3.8-48.3 6.4-11.5 10.4-32 15-49.8 15.1z" fill="#6C63FF" opacity=".1"/>
    <path d="M277 9.2v153.5c0 4.6-4.2 8.3-9.5 8.3h-201c-5.3 0-9.5-3.7-9.5-8.3V9.2C57 4.7 61.2 0 66.5 0l201 .5c5.2 0 9.5 4.2 9.5 8.7z" fill="#FFF"/>
    <path d="M277 9v7H57V9a9 9 0 0 1 9-9h202c5 0 9 4 9 9z" fill="#3F3D56"/>
    <ellipse fill="#FA5959" opacity=".8" cx="67.5" cy="8" rx="3.5" ry="3"/>
    <ellipse fill="#FED253" opacity=".8" cx="77.5" cy="8" rx="3.5" ry="3"/>
    <ellipse fill="#8CCF4D" opacity=".8" cx="86.5" cy="8" rx="3.5" ry="3"/>
    <path d="M186.8 55.1v17c0 .4-.9.8-2 .8h-42.6c-1.1 0-2-.4-2-.9V55.1c0-.5.9-1 2-1h42.6c1.1 0 2 .5 2 1z" opacity=".2" fill="#6C63FF"/>
    <path fill="#6C63FF" d="M161 60h22v1h-22z"/>
    <path d="M149 59a5 5 0 0 0-4.8 3.9c-.6 2.3.2 4.8 2 6v-.3c0-.6.5-1.1 1-1.2a2 2 0 0 0 1.8 1.1 2 2 0 0 0 1.7-1.1c.6 0 1 .6 1 1.2v.4a5.7 5.7 0 0 0 2-6.1A5 5 0 0 0 149 59zm2 6.9c-.1 1.1-1 2-2 2s-2-.9-2-2c-.2-.6-.3-1.3 0-1.8.2-.6.6-1.1 1.1-1.4v-.4l.1-.5.5-.2c-.3 0-.6.4-.6.7l.1.4v-.1c0-.2 0-.3.2-.5 0-.3.3-.5.6-.5-.2 0-.3.2-.5.4l.4-.2c.4 0 .7.4.7.8 1 .3 1.6 1.2 1.6 2.3l-.2 1z" fill="#6C63FF" fill-rule="nonzero" opacity=".2"/>
    <path fill="#6C63FF" opacity=".2" d="M161 63h22v1h-22zM161 64h22v1h-22zM137 88v17c0 .4-1 .8-2 .8H92c-1.1 0-2-.4-2-.9V88c0-.5.9-1 2-1H135c1 0 2 .5 2 1z"/>
    <path fill="#6C63FF" d="M111 93h22v1h-22z"/>
    <path d="M100 92a5 5 0 0 0-4.8 3.9c-.6 2.3.2 4.8 2 6v-.3c0-.6.5-1.1 1-1.2a2 2 0 0 0 1.8 1.1 2 2 0 0 0 1.7-1.1c.6 0 1 .6 1 1.2v.4a5.7 5.7 0 0 0 2-6.1A5 5 0 0 0 100 92zm2 6.9c-.1 1.1-1 2-2 2s-2-.9-2-2l-.2-1c0-1 .5-1.8 1.3-2.2v-.4c0-.4.2-.7.6-.7-.2 0-.4.2-.5.4v.6c0-.5.4-.9.8-1-.2 0-.4.2-.5.4l.4-.2c.3 0 .6.4.6.8.7.2 1.2.7 1.5 1.3.2.6.2 1.4 0 2z" fill="#6C63FF" fill-rule="nonzero" opacity=".2"/>
    <path fill="#6C63FF" opacity=".2" d="M111 95h22v1h-22zM111 96h22v1h-22zM125.7 36.2V53c0 .5-.9.9-2 .9H81.1c-1 0-2-.4-2-1V36.3c0-.5 1-1 2-1h42.6c1.1 0 2 .5 2 1z"/>
    <path fill="#6C63FF" d="M100 40h22v1h-22z"/>
    <path fill="#6C63FF" opacity=".2" d="M100 43h22v1h-22zM100 44h22v1h-22z"/>
    <path d="M88 39a5 5 0 0 0-4.8 3.9c-.6 2.3.2 4.8 2 6v-.8c0-.7.5-1.2 1-1.3A2 2 0 0 0 88 48a2 2 0 0 0 1.7-1.2c.6.1 1 .6 1 1.3v.9a5.7 5.7 0 0 0 2-6.1A5 5 0 0 0 88 39zm2.2 6.6v.1H89.8c-.3 1.1-1.3 1.8-2.2 1.6-1-.2-1.7-1-1.7-2.1 0-.4 0-.8.2-1V44a.8.8 0 0 1 0-1l.5-.2c.4-.1.8-.4 1-.8v.3l.3-.2c.2 0 .3 0 .4.2l.1.2h.3l.5.1c.2 0 .4.1.5.3l.2.3.3 1.2c.1.4 0 .8-.1 1.1z" fill="#6C63FF" fill-rule="nonzero" opacity=".2"/>
    <path d="M198 114.1v17c0 .4-1 .8-2.1.8H153c-1 0-2-.4-2-.9v-16.9c0-.5 1-1 2-1h43c1 0 2 .5 2 1z" opacity=".2" fill="#6C63FF"/>
    <path fill="#6C63FF" d="M172 119h22v1h-22z"/>
    <path fill="#6C63FF" opacity=".2" d="M172 121h22v1h-22zM172 122h22v1h-22z"/>
    <path d="M161 117a5 5 0 0 0-4.8 3.9c-.6 2.3.2 4.8 2 6v-.8c0-.7.5-1.2 1-1.3a2 2 0 0 0 1.8 1.2 2 2 0 0 0 1.7-1.2c.6.1 1 .6 1 1.3v.9a5.7 5.7 0 0 0 2-6.1 5 5 0 0 0-4.7-3.9zm2.2 6.6v.1H162.8a2 2 0 0 1-1.6 1.6 2 2 0 0 1-2-.9c-.4-.7-.4-1.6 0-2.3a.8.8 0 0 1 0-1l.4-.2c.4 0 .8-.4 1-.8v.3l.4-.1h.3c0 .2 0 .2.2.3h.2l.5.1c.2 0 .4.1.5.3l.2.3.4 1.2c0 .4 0 .8-.2 1.1z" fill="#6C63FF" fill-rule="nonzero" opacity=".2"/>
    <path d="M149 169.2l-6.3-9.4s0-2.3-.5-2.9c-.4-.5 0-1.8 0-1.8s.4-.6 0-.7c-.4 0 0-1.5 0-1.5l-.1-2.4s.3-2.3 0-2.8a1 1 0 0 1 0-1s.4-1.3 0-1.6c-.3-.4-.2-2.4-.1-4 0-1.6-.6-2.5-.6-2.8 0-.2-2.3-2.6-2.3-2.8 0-.2-1.5-1-2.4-1.3-.9-.3-1.3-.5-1.3-.6l-1.3-.6s-1.3 0-1.7-.7c-.5-.6-2-.8-2-.8V131.2a8.9 8.9 0 0 0 .3-.8c.6 0 1-.1 1.5-.4.4-.4.7-1 .7-1.5 0-.6-.1-1.1-.4-1.6-.2-.6-.6-1.1-.5-1.7l.3-.7c.1-.5 0-1-.2-1.5l-.8-1.2a5 5 0 0 1-.6-1.8c0-.4 0-.7-.2-1l-.5-.5c-1-.7-2-1-3.2-1-.8 0-1.6.2-2.4.1l-1.3-.3c-1-.3-2.2-.5-3 .1-.9.6-1.2 1.7-1.8 2.6-.5.8-1.3 1.5-1.6 2.3l-.3.6c0 .7 0 1.4.2 2 0 .4.2.7.4 1l1 .1v.2a7 7 0 0 0 4.7 8.1v.7s-3-.6-3.8-.2l-2.6 1c-.2.3-.8 0-1.3 1.5-.6 1.4-.6 2.9-1.3 3.6-.7.6-1 1-1 1.6 0 .5 0 .6-.2.7-.3.2-.7.8-.5 1 0 .4 0 .8-.4 1a1 1 0 0 0-.4.9s-.1.6-.6.8c-.4.1-.6 1.1-.6 1.1l-1.4 1.6-2.6-3a1 1 0 0 0-1.6 0l-1.3 1.1c-.5.1-1 .4-1.3.8l-.6 1-.7.7a2 2 0 0 0-.2 2l1.7 2c-.6 0-1.2.3-1.7.7-2.5 2.3-2.5 4.5-2.1 5.4.4 1 3.6 4.7 3.6 4.7s1.8 2.5 4.5 3.9l-.2.2v.1h-.1v.1l-.1.1-.1.2v.2h-.1v.2l-.1.2v.2h-.1v.7l-.1.1v.7l.1 4a2 2 0 0 0 1.6 1.3h.5a28 28 0 0 1 6.3-.7c.8.1 2.2 0 3.2-.3h.3l.1.6.6-.2.5.3.3.2c.6 2 3 1.3 3 1.3l.5.3 5.7.2a11.2 11.2 0 0 0 2.2 1c.6.1 1 .1 1.6 0h.8l-.2-3.3c1.8 0 3.5-.2 5.3-.5 3-.5 4.3-3.4 4.7-4.9.2.6.3 1.3.3 1.9l.5 1.6c.1.5.4.9.6 1.3 2.3-.8 1-2 .4-2.5-.4-.6.4-1 .4-1s.6-.4.5-.8c0-.4 0-.8 2-.8s1.8-1.7 1.8-1.7zm-31-19.4l.6 2.6v1l-2.3-.2v.2h-.2l-.2-.1 2.2-3.5zm-4.3 7.2l2 .3h.3l-.1 1v.6c0 .2 1 .6 2.1.9v.2c-1-.6-2.5-.8-2.7-1.2-.2-.4-5.4-2.3-5.4-2.3s-.2 0-.5-.3l1.4.3h.4l2.5.5z" fill="url(#a)" fill-rule="nonzero"/>
    <path d="M142 168.5s-.8 5.1-4.8 5.9c-4 .7-17.5.6-17.5.6s-7.6-1.2-10.4-8.2c-2.8-6.9-4.6-9.7-2.2-9.8 2.4-.1 15.2 4.7 16 4.7.7 0 19.6-10.6 18.9 6.8z" fill="#65617D"/>
    <path d="M142 168.5s-.8 5.1-4.8 5.9c-4 .7-17.5.6-17.5.6s-7.6-1.2-10.4-8.2c-2.8-6.9-4.6-9.7-2.2-9.8 2.4-.1 15.2 4.7 16 4.7.7 0 19.6-10.6 18.9 6.8z" fill="#000" opacity=".1"/>
    <path d="M105.1 174.8c.3.6.8 1.1 1.5 1.2h.4c1.5-.3 4.8-1 6-.7.7.1 2 0 3-.3l1-.2s-1-4-1.2-4.2l-5-3.3-3.7-.3a2 2 0 0 0-1.3.8c-.4.6-.8 1.5-.8 3l.1 4z" fill="#3F3D56"/>
    <path d="M104.2 174.8c.3.6 1.2 1.1 2 1.2-.4-.5-1-1-1.4-1.7v-3c-.2-1.6.6-3.2 2.2-4.3 0 0-3 .2-3 3.7 0 3.6.2 4 .2 4zM122.1 170l3.5-3.3 5.4-6.6-1.5-.1c-.2.2-.8.7-.8 1.4 0 .8-1.5 0-2.2.5-.8.5-4.4 6.2-5 6.2-.7 0-1.2-.4-1.5.2l2.1 1.7z" fill="#000" opacity=".1"/>
    <path d="M106 168.8l.4.2c2.6 1.3 5.8 4 6 4.5.2.3 2.1 1.5 3.5 2.5l1.1-.3s-1-4-1.2-4c-.1-.2-4.8-3.4-4.8-3.4l-3.7-.3a2 2 0 0 0-1.3.8z" fill="#000" opacity=".1"/>
    <path d="M97.2 160.1c.3 1 3.5 4.8 3.5 4.8s2 2.7 4.8 4c2.8 1.3 6.3 4 6.5 4.4.2.3 2.5 1.8 4 2.7l.4.3.8.4.4.3 2-1.6 1.8-1.7c0-.1.4-1.1.3-1.2l-.6-1c-.4-.5-.9-1-1.4-1.2a4.3 4.3 0 0 1-2-2.1l-.2-.3-1.3-.6c-.7 0-1.8-1.4-1.8-1.4-.5-.3-.9-.7-1.2-1.3-.3-.6-4.7-3.8-5.2-4.1l10.9 7.3 2.6 1.7 3.7-3 5.8-6.1-2-.1a98 98 0 0 0-10 0s-1.5 0-2.4-.5c-1-.6-2.5-.8-2.6-1.2-.2-.4-5.3-2.3-5.3-2.3s-7-3.9-9.4-1.6c-2.5 2.3-2.5 4.5-2.1 5.4z" fill="#65617D"/>
    <path d="M119 137.8l1 3 1.1 7 4.4.2 1.3-2 1.3-2.2s.8-2.8 1.3-5.4c.5-2.4.9-4.7.3-5-.5-.2-.8-1-1-1.9v-.3l-.4-2.2s-9.2-.5-7.9 3.3a5.9 5.9 0 0 1 .3 2.5 4.3 4.3 0 0 1-1.7 3z" fill="#EE8E9E"/>
    <path d="M118 137.5l.3 5.3.8 4.4.8 2 .7 11.4s7.1.9 8.9 0l.3-.2c2-3.2 1.4-12.5 1.4-12.5l.8-6-.5-3.2-1.3-.1-1-.1-.5.7c-1 1.2-2.5 3.5-2.4 4.5.1 1.3-.2 2.6-.7 2.8-.5.3-1 .6-1 .2-.1-.3-.2-.6-.1-1l-.4-2s-.8-1.8-.7-2.6c0-.8-.1-1.7-.3-1.9-.3-.2-.6-.4-.3-1.4.2-1-1.2-2.8-1.2-2.8l-3.6 2.5z" fill="#E3E8F4"/>
    <path d="M128 150l.3 9 1.5 1 .3-.3c1.8-3.2 1.2-12.5 1.2-12.5l.7-6-.5-3.1-1.1-.2c.4-2.4.7-4.7.3-5-.5-.2-.8-1-1-1.9l-.7 6.4a16.3 16.3 0 0 0 0 2.2c-.2.6 0 1.6 0 1.6-.5 1-.8 2.7-.9 4.4v4.4z" fill="#000" opacity=".1"/>
    <path d="M130.8 131s1.5.2 2 .8c.4.6 1.6.7 1.6.7s1.4.5 1.3.6c0 .1.4.3 1.3.6.9.2 2.3 1 2.3 1.3 0 .2 2.2 2.5 2.2 2.8 0 .2.7 1.1.6 2.7 0 1.6-.1 3.6.2 4 .4.3 0 1.6 0 1.6a1 1 0 0 0 0 1c.3.5 0 2.7 0 2.7v2.4s-.4 1.4 0 1.5c.4 0 0 .7 0 .7s-.4 1.2 0 1.8c.4.5.6 2.8.6 2.8l6.1 9.3s0 1.7-1.9 1.7c-2 0-1.9.4-1.8.8 0 .4-.6.8-.6.8s-.7.4-.3 1c.5.5 1.8 1.6-.4 2.4l-.6-1.2-.5-1.6s-.2-2.3-.6-2.6c-.4-.3-.3-1.7-.3-1.7s.5-1.2-.3-1.7l-12.4-7.2-.3-9s-.2-6.6 1-8.9v-1.5c.3-.5 0-2.2 0-2.2l.8-6.4z" fill="#3F3D56"/>
    <path d="M122.2 135.3s-2.8-.6-3.6-.2c-.7.5-2.2.8-2.4 1-.2.3-.8.1-1.3 1.5s-.6 2.9-1.2 3.5c-.7.7-1 1.1-1 1.6s0 .6-.2.8c-.2.1-.6.8-.5 1l5.8 5.5s.3 2 .6 2.5c.2.6-.3 7.6-.9 8-.5.5 3.8.5 3.8.5s.2-4.6.4-4.9c.1-.2-.2-5.1-.2-5.1s0-4.2.4-5.3c.3-1.2.3-4.8.3-4.8s.3-2.3.7-2.8c.4-.5-.7-2.8-.7-2.8z" fill="#000" opacity=".1"/>
    <path d="M122.2 135.3s-2.8-.6-3.6-.2c-.7.5-2.2.8-2.4 1-.2.3-.8.1-1.3 1.5s-.6 2.9-1.2 3.5c-.7.7-1 1.1-1 1.6s0 .6-.2.8c-.2.1-.6.8-.5 1l5.8 5.5s.3 2 .6 2.5c.2.6-.3 7.6-.9 8-.5.5 3.8.5 3.8.5s.2-4.6.4-4.9c.1-.2-.2-5.1-.2-5.1s0-4.2.4-5.3c.3-1.2.3-4.8.3-4.8s.3-2.3.7-2.8c.4-.5-.7-2.8-.7-2.8z" fill="#3F3D56"/>
    <path d="M121.1 132.5c.3.7.4 1.5.4 2.2 3.3 1 6.8-.4 8.5-3.3l-.3-2.4s-10-.5-8.6 3.5z" fill="#000" opacity=".1"/>
    <path d="M117 127c0 3.7 2.7 6.8 6.2 7 3.4.2 6.4-2.6 6.8-6.3.3-3.7-2-7-5.5-7.6-3.4-.6-6.6 1.8-7.4 5.5l-.1 1.4z" fill="#EE8E9E"/>
    <path d="M112.6 143l-1.5.5c0 .3 0 .6-.3.8a1 1 0 0 0-.4.9s-.2.6-.6.7c-.4.2-.6 1.1-.6 1.1l-1.3 1.5s-.5.4-.4.6c0 .2-.5.3-.5.3l.3 5 2.7.6 1.6-.2 1.4-.5 1.1-.7.6-1.4 2.3-3.7-4.4-5.5z" fill="#3F3D56"/>
    <path d="M107.1 150.6s-4-5.8-7-2.7c-3 3.2 1.2 8.3 2.2 8.1 1-.2 5.7-.4 5.7-.4l-.9-5z" fill="#EE8E9E"/>
    <path d="M117 125.3l.5.2c.2.3.2.7.5.9h.3c.8-.1 1.2-1 2-1.2h1.3l.4.4c.2.3 0 .8.2 1.2.1.5.8.7 1.3.8.6 0 1.2.1 1.6.5.2.4.3.8.2 1.2v.4c.2.4 1 .4 1.1 0 .2-.2.1-.4.5-.5l.7.1a5 5 0 0 0 1.8.3c1-2.3.7-5.1-.9-7.1a6.5 6.5 0 0 0-6.6-2.3 6.7 6.7 0 0 0-4.9 5.1z" fill="#000" opacity=".1"/>
    <path d="M124.9 129.7v-.5c0-.4 0-.8-.3-1.1-.4-.5-1-.5-1.6-.6-.5 0-1.1-.3-1.3-.9-.1-.4 0-.9-.2-1.2a1 1 0 0 0-.4-.3c-.4-.2-.8-.3-1.3-.1-.7.2-1.1 1.1-1.9 1.2h-.3c-.3-.2-.3-.6-.5-.9-.4-.3-1 0-1.5-.4-.2-.2-.4-.5-.4-.9-.2-.6-.2-1.3-.1-2 .2-1.2 1.1-2 1.8-3 .5-.8.8-2 1.7-2.6.8-.6 1.9-.4 2.9-.1.4.1.8.3 1.3.3.8.1 1.5 0 2.3-.1 1.1 0 2.2.3 3 1 .3.1.4.3.6.5l.2 1c0 .6.3 1.3.6 1.8l.8 1.3c.2.4.3 1 .2 1.4-.1.3-.3.5-.3.8-.2.6.2 1.1.5 1.7.2.5.3 1 .3 1.6 0 .6-.3 1.1-.7 1.5-.4.3-1 .5-1.4.5-.6 0-1.3-.1-1.9-.3l-.7-.2c-.3.1-.2.3-.4.6-.2.4-.9.4-1 0z" fill="#3F3D56"/>
    <path d="M122.3 170l3.4-3.3 5.3-6.6-1.7-.1c-.3.2-.4.6-.4.9 0 .8-1.4 0-2.2.5-.7.5-4.3 6.2-4.9 6.2-.6 0-1.1-.4-1.4.2-.1.2-.2.3-.4.3l2.3 1.9z" fill="#000" opacity=".1"/>
    <path d="M114 167.9l2 6.1.2 1 1-.3 2-.5 9-2.5c1 0 2.1-.3 3.1-.9 1.7-1 3.7-1.3 5.6-1.2 1.2.1 2.5-.4 3.6-2.4 0 0 2.5-7.4-3.8-9.5-6.2-2-6.5 1.1-6.5 1.1h-.1c-.3.2-1 .7-1 1.3 0 .8-1.6 0-2.4.5-.9.4-5 5.6-5.6 5.6-.7 0-1.3-.4-1.6.2-.2.3-.9.4-1.3.4h-.4l-.5.1-3.3 1z" fill="#65617D"/>
    <path d="M115 155.9l1.4.1.6-2.9-1.5-.1c.3.4-.2 2-.5 2.9z" fill="#000" opacity=".1"/>
    <path d="M138.8 138.1s2.8-.8 2 7.3a23.2 23.2 0 0 1-5.6 13.3s-5.8 2.7-8.4 2.3c-2.6-.5-4.5-.6-4.5-.6-.9-.4-1.8-.7-2.7-.7a12 12 0 0 1-4.6-1.3c0-.3.8-4.9.4-5.2 0 0 4.1.2 4.5.5.4.3 1 0 1.5 0 .4-.1 1.8-1.4 4.4-.3 0 0 1 .1 1.3-.1.3-.2.6-.2 1 0l.5-.4c.1-.2.8 0 .8 0h.3l.2-.2c0-.3.2-.5.4-.7 0 0 .8-4.7 2.3-6.5.2-.2.3-.5.3-.9-.1-.5 2.4-7.5 6-6.5zM118 168.1l3.7 3.9.3-1c-.1 0-.7-1.2-2-1.8-.7-.2-1.2-.7-1.6-1.2l-.4.1z" fill="#000" opacity=".1"/>
    <path d="M118 175.8l.4.2 1.7-1.5 1.6-1.4c0-.1.4-1 .3-1.1l-.5-.8c-2.2-.7-.8 1-.6 1 0 0-2.7-.6-2.9 2.6v1z" fill="#000" opacity=".1"/>
    <path d="M120 178.3l.6.4 5.7.1a11.1 11.1 0 0 0 2.3 1.2H131s-.3-7.9-.5-8.7c0-.4-.6-.3-1-.1l-1 .5s-2.5.3-2.8.5c-.4.3-1.5-.1-2.2 0-.7.2-1.9-.8-1.9-.8-3.3-1.2-1.4 1-1.2 1 0 0-3.2-.7-3.4 3.1-.2 3.8 3 2.8 3 2.8z" fill="#3F3D56"/>
    <path d="M129 175.3c0 1.6 1.4 3.6 2.1 4.7h.9s-.3-7.9-.5-8.7c-.1-.4-.7-.3-1.2-.1a9 9 0 0 0-1.3 4z" fill="#565387"/>
    <path d="M129 175.3c0 1.6 1.4 3.6 2.1 4.7h.9s-.3-7.9-.5-8.7c-.1-.4-.7-.3-1.2-.1a9 9 0 0 0-1.3 4z" fill="#000" opacity=".1"/>
    <path d="M128.1 175.5c.4 1.6.4 3.3 1 4.4h.4a13.8 13.8 0 0 0 2.5 0s-.3-7.8-.5-8.6c-.1-.4-.6-.3-1.1-.1l-1.1.5s-1.7 1.8-1.2 3.8zM109 161s2.7.7 5 3l-5-3z" fill="#000" opacity=".1"/>
    <g opacity=".1" fill="#000">
      <path d="M130.5 124.2l-.1.3v-.3zM115.3 122.7l.2-.6v.1a5 5 0 0 0 0 2.1l.5 1c.4.3 1 0 1.4.4.3.2.3.7.5.9h.4c.7-.1 1.2-1 1.9-1.3.4-.1.8-.1 1.2.1.2 0 .3.2.4.3.3.4.1.9.2 1.3.2.6.8.8 1.3.9.6 0 1.2.1 1.5.6.3.3.4.8.3 1.2v.4c.2.5.9.4 1 0 .2-.2.2-.4.5-.5l.7.1c.6.3 1.2.4 1.8.3.5 0 1-.1 1.4-.4l.5-.6c-.1.4-.3.7-.6 1-.5.3-1 .5-1.5.5-.6 0-1.2 0-1.8-.3-.2-.1-.4-.2-.7-.1-.3 0-.2.3-.4.5-.2.4-.9.5-1 0v-.4c0-.5 0-1-.3-1.3-.4-.4-1-.5-1.5-.5-.6-.1-1.2-.4-1.3-1-.2-.4 0-.9-.2-1.2a1 1 0 0 0-.4-.3c-.4-.2-.9-.3-1.3-.2-.7.3-1.1 1.2-1.9 1.4h-.3c-.3-.2-.3-.7-.5-1-.4-.4-1 0-1.4-.4-.3-.2-.4-.6-.5-1a5 5 0 0 1-.1-2z"/>
    </g>
    <path d="M131.6 146.4l-1.8 2c-.6.8-.9 1.7-.8 2.6.5-.5.8-1.2 1.1-1.8.6-1 1.5-2 2.2-2.9.1-.2 1-1.2.6-1.3-.4 0-1.1 1.1-1.3 1.4z" fill="#000" opacity=".1"/>
    <path d="M117.1 135.2l5.9 11.3c.1.4-.3 1-1.1 1.4l-29.3 15.7c-.8.5-1.5.5-1.7.2L85 152.5c-.1-.3.3-1 1-1.4l29.4-15.8c.7-.4 1.5-.4 1.7 0z" fill="#FFF"/>
    <path d="M117 135.4l5.9 11.2c.2.3-.3 1-1 1.3L92 163.5c-.8.4-1.6.5-1.7.2l-6-11.2c-.2-.3.3-1 1-1.4l29.9-15.6c.7-.4 1.5-.4 1.7 0z" opacity=".2" fill="#6C63FF"/>
    <path fill="#6C63FF" d="M101 147.8l15.1-8.3.3.6-15 8.2z"/>
    <path fill="#6C63FF" opacity=".2" d="M101.7 149.1l15-8.2.4.5-15.1 8.3z"/>
    <path d="M93.4 149.5a4.5 4.5 0 0 0 1.7 8.5l-.4-.7a1 1 0 0 1 .3-1.3 1.8 1.8 0 0 0 2.8-1.5c.5-.1 1 0 1.3.5l.3.7a4.5 4.5 0 0 0-6-6.2zm4.3 4v.2h-.2a1.8 1.8 0 0 1-2.5 2c-.6-.3-1-1-1-1.7a.6.6 0 0 1-.4-.7l.3-.3c.3-.3.5-.7.5-1.1l.1.2c0-.2.3-.3.5-.2h.4l.5-.2c.2-.1.6 0 .8.2l.7.7c.2.2.3.5.3.9z" fill="#6C63FF" fill-rule="nonzero" opacity=".2"/>
    <path d="M106 150.8c0 3.9 7.8 4.7 7.8 4.7l2 .4.8.1.4-3.8-1-.2c-.7-.2-1.6-.5-1.8-1-.4-.6-8.2-4-8.2-.2z" fill="#EE8E9E"/>
    <path d="M138.8 137s2.8-.7 2 7.4c-.6 8.1-5.6 13.3-5.6 13.3s-5.8 2.7-8.4 2.3a44 44 0 0 0-4.5-.6c-.9-.4-1.8-.7-2.7-.7a12 12 0 0 1-4.6-1.3c0-.3.8-4.9.4-5.2 0 0 4.1.2 4.5.5.4.3 1 0 1.5 0 .4-.1 1.8-1.4 4.4-.3 0 0 1 .1 1.3-.1.3-.2.6-.2.9 0l.6-.4c.1-.2.8 0 .8 0h.3l.2-.2c0-.3.2-.5.4-.7 0 0 .8-4.7 2.3-6.5.2-.2.3-.5.3-.9-.1-.5 2.4-7.5 6-6.5z" fill="#3F3D56"/>
    <path d="M251 39v17c0 .6-1 1-2 1h-43c-1 0-2-.4-2-1V39c0-.5 1-1 2-1h43c1 0 2 .5 2 1z" fill="#FFF"/>
    <path d="M246 42.3v16.6c0 .5-1 .9-2 .9h-43c-1 0-2-.4-2-.9V42.3c0-.5 1-1 2-1h43c1 0 2 .5 2 1z" opacity=".1" fill="#6C63FF"/>
    <path d="M251 39v17c0 .6-1 1-2 1h-43c-1 0-2-.4-2-1V39c0-.5 1-1 2-1h43c1 0 2 .5 2 1z" fill="#FFF"/>
    <path d="M250.8 39.2V56c0 .4-1 .8-2 .8H206c-1 0-2-.4-2-.8V39.2c0-.5 1-1 2-1h42.6c1.2 0 2 .5 2 1z" opacity=".2" fill="#6C63FF"/>
    <path fill="#6C63FF" d="M225 45h22v1h-22z"/>
    <path fill="#6C63FF" opacity=".2" d="M225 47h22v1h-22zM225 49h22v1h-22z"/>
    <path d="M213 43a5 5 0 0 0-4.8 3.9c-.6 2.3.2 4.8 2 6v-.8c0-.7.5-1.2 1-1.3A2 2 0 0 0 213 52a2 2 0 0 0 1.7-1.2c.6.1 1 .6 1 1.3v.9a5.7 5.7 0 0 0 2-6.1A5 5 0 0 0 213 43zm2.2 6.6l-.2.2h-.1c-.3 1-1.2 1.7-2.2 1.5-1-.2-1.7-1-1.7-2.1 0-.4 0-.8.3-1V48a.8.8 0 0 1 0-1l.4-.2c.4-.1.8-.4 1-.8v.3l.4-.2s.2 0 .3.2l.2.2h.2l.5.1c.3 0 .7.2.7.6l.4 1.2c0 .4 0 .8-.2 1.1z" fill="#6C63FF" fill-rule="nonzero" opacity=".2"/>
    <path d="M264 175.4l-.7-2.7s0-1.7-.7-2.8v-.5l-.1-3 .6-1.5c.5-1-.1-4.4-.1-4.4s-2.1-4.8-1.8-7.9c.4-3-4.4-13.5-4.4-13.5 0-1 0-2 .3-3a2.5 2.5 0 0 0 0-.8c-.2-2-1.8-5.7-1.8-5.7l-.1-7.3s.8-4.3-1-10l-1.3-4.8-.1-.4 5.8-1.1s-2.2-8.3-3.6-9.7c-1.4-1.4-2.6-6-2.6-6s-.9-5.8.2-7.6c1-1.8 1-4.8 1-4.8s2.5-2 2.8-2.8c.2-.8.7-2.7.7-3.7s-.4-2-.3-2.4c0-.6-.9-2.5-.5-3.5l.2-.9c0-.8-.2-1.7-.4-2.5-.7-.6-1.6-1-2.5-1.2v-.2l-.2-.6-.3-.2v-1l.3-2c.7-3.3-3.6-3.6-3.6-3.6-.3-.5-.8-.9-1.3-1-.9-.4 0 5 .5 5.2l1.8 2.7v.1l-.2.2.2 1.2v.2l-.6 1.2s.9.8.7 1.8c0 1 .4 2.3.4 2.3s-.6-.6-1.2-.4l-2 .7s-1.2.2-1 .5l-.8 1.4-3.2-2.9-.1-.2-.3-1.4 1-.3.8-.6c.3-.4.3-1 .4-1.4.2-1 .7-1.8 1-2.7.7-1.5.8-3.1.5-4.7 0-.5-.2-1-.5-1.4-.6-.7-1.5-1-2.2-1.5-.6-.5-1.1-1.4-1.9-1.8-.7-.3-1.6-.3-2.3-.1-1.6.3-3 1-4.4 1.8-.4.3-.9.6-1.4.6-.4-.1-.8-.5-1-.8h-.1a5.8 5.8 0 0 0-.4 2.7v.4c0 .2-.1.3-.3.5l-.2.3v-.1a2 2 0 0 0-.3 1c0 .3.1.5.3.7l.5.4v1c0 2.2 1.2 4.2 3 5.2l.2.3c.4 1 .8 2.3.7 3.5v.2l-.2.1s-5 .3-6.3-.8c-1.2-1-3 2.9-3 2.9s-1.7.4-2.1 0c-.4-.3-2.5.1-2.5.1-1-.8-2-1.1-3.2-1-.8-.6-1.6-1-2.4-1.3-.4-.1-.8-.2-1.2-.1 0 0-2.6-2-3.4-3.2-.7-1.1-4.4-5.2-4.4-5.2V58.7a2 2 0 0 1-.4 0v-.1l-.9-1.8s0-.7.2-1c.2-.2-.2-3-.2-3s-2.5-5.4-4.3-1.2c0 0-3.7 2.8-.4 5.7 0 0 1.3.6 1.5 1l.9 2 .1.2v.7c-.5.4-.9.8-.8 1l.4 1.4s4.7 5.6 5.3 8c0 0 12.2 6.9 16.1 7.2l-.5 3.7v3l-.3 4.3s-.5 5.3-1 6c-.6.8-.4 3.9-.4 3.9 0 1.5-.3 3-.6 4.5-.5 2 0 4.4 0 4.4s-1.8 4.8 2.8 1.4l5-.4v1.4c.1 2.7.2 6.4.5 9.2.3 5 2.2 14.7 2.2 14.7l.2 4.9-.1 1.4c0 1.8.5 3.5 1.4 5l.5 3.2s1 2.1 1 3.4v.8c0 1.5 1 5 1 5s.2 3.7.7 3.8c.4.2-.5 2.1-.8 2.7v-.1l-.1.1-.1 1c0 .4.2 1 .6 1.2 1 .6 1.6 1 .7 1.3l-.9.2c-.3 0-.4.3-.3.6l.3 1.2 1.5 2.6h.4l-.2.4c-.1.2-.3.4-.6.5-.2.2-.4.3-.7.3a2 2 0 0 0-1.4.8c-.5.7-.8 1.7.3 2.5l3.7 1.2s6.5.6 6.1-.9l-.7-2.8a6 6 0 0 0-.6-2.6l-.2-.4h.2s.4-3.3 1-4v-.3c.1-.2 0-.3-.2-.3v.1h-.7s-.3-1.8.4-2.4l.1-.5-.1-.7c-.4-1.5-1.7-4-1.7-4s0-1.5.3-2.2c.4-.6-.4-8.5-.4-8.5s0-3.8-.5-5.5c-.5-1.8.5-4 .5-4l-.1-.7-.6-3.6c-.3-1.2-.2-7-.2-7l.8-2.4 1.9 4.2 2 5.5s.9 1.2 1 2.4v.5c0 .7.1 1.4.5 2 0 0 .6 2.7 1.4 3.3.7.6.8 2 .8 2s1 3.8 1.5 4.5c.3.5.4 2 .4 2.6v.1l.2 2.5v1.2c-.2.8-.3 1.6-.2 2.4 0 1.4.3 3 1.1 4 1.5 1.6 2.4 1.4 2.4 1.4s-.6 2-1.5 2.5a1 1 0 0 0-.3.8c0 .9.6 2.3 1.2 3l.7.4-.2.1-.2.1-.5.2a2 2 0 0 0-1.4.8c-.5.7-.8 1.7.3 2.4l3.8 1.2s6.4.6 6-.9z" fill="url(#b)"/>
    <path d="M240.3 178.9l-3.6-1.3c-1-.8-.7-1.8-.3-2.6.3-.5.8-.8 1.4-.8l.7-.4c.2-.1.4-.3.5-.6.2-.4.4-1 .3-1.5 0 0 3.9-1.4 5-.2l.5.7a58.6 58.6 0 0 0 1.2 5.7c.4 1.6-5.7 1-5.7 1zM257.3 175.9l-3.6-1.3c-1-.8-.7-1.8-.3-2.6.3-.5.8-.8 1.4-.8l.4-.2.3-.1c1-.7.9-2.2.9-2.2s3.8-1.4 4.9-.2l.4.5c.7 1.3.7 3 .7 3l.6 3c.4 1.5-5.7.9-5.7.9z" fill="#2D293D"/>
    <path d="M244.4 171.4l.6.7-7 .9c.3-.4.4-.9.4-1.4 0 0 4.7-1.2 6-.2zM261 169.9v1c-.9 1.4-5.6 1.3-7 .6l.3-.1c1-.6 1-1.8 1-1.8s4-1.2 5.3-.2l.4.5z" fill="#000" opacity=".1"/>
    <path d="M261.8 164.7c-.2.5-.5 1-.6 1.6l.1 4.1c-1 1.8-6.3 1.4-7 .5-.8-.9-1.7-3.3-.9-3.8.8-.4 1.4-2.5 1.4-2.5s-.8.2-2.3-1.4c-1.5-1.6-1.2-5.3-1-6.2.3-1-.1-3.9-.1-3.9s0-2-.5-2.7c-.4-.7-1.4-4.5-1.4-4.5s0-1.3-.8-2c-.8-.6-1.3-3.3-1.3-3.3-.5-.6-.7-1.4-.6-2.2 0-1.3-1-2.7-1-2.7l-2-5.6-1.8-4.1-.8 2.5s0 5.7.2 7c.3 1.1.7 4.3.7 4.3s-1 2.1-.4 3.9c.5 1.7.5 5.5.5 5.5s.8 7.9.4 8.5c-.4.7-.3 2.2-.3 2.2s2.3 4.6 1.6 5.2c-.6.7-.3 2.4-.3 2.4s1.4 0 .8.6c-.6.6-1 4-1 4l-6.1.9s-.6-.7-1.5-2.6c-.9-2 0-1.7.9-2 .8-.2.3-.7-.7-1.3-1-.6-.5-2-.5-2s1.4-2.6.9-2.8c-.6-.2-.7-3.8-.7-3.8s-1.2-4.3-1-5.4c.2-1.2-1-4-1-4l-.5-3.2a9.2 9.2 0 0 1-1.3-6.2l-.2-5s-1.8-9.8-2.2-14.7c-.3-3.2-.4-7.6-.5-10.3v-2.5l22-3.2.6 3.3 1.3 4.8c1.8 5.7 1 10 1 10l.1 7.3s2.1 4.8 1.8 6.5l-.3 3s4.8 10.4 4.4 13.5c-.3 3.1 1.8 8 1.8 8s.6 3.4.1 4.3z" fill="#65617D"/>
    <path d="M247 138.6l7-1.6s-3.8 5.5-7 1.6zM253.4 131s.4 2.1-1.4 3c0 0 3.3-.5 1.4-3zM254 123s-5.6 4.3-7.7 4c-2.1-.3 7.7-4 7.7-4zM240 140s-4 1-4 2.6 4-2.6 4-2.6zM242.8 163s-6.3 1.2-4.5 1.9c1.9.6 4.9 1.1 4.9 1.1s2 0-.4-3z" fill="#000" opacity=".1"/>
    <g opacity=".1" fill="#000">
      <path d="M237.3 165.5c-.3-.2-.5-.6-.6-1v.2s-.5 1.4.4 2l.4.2h.5c.8-.3.3-.8-.7-1.4zM245 164.7v-1a3 3 0 0 0-.3 1.5c0-.2.1-.3.3-.5zM243 138.5l-.3 2 .5-1.4-.1-.6zM256.7 135.1v-.5l-.1 1v-.5zM243.6 157.3c.1-.4.2-.8.1-1.2l-.2 1.5.1-.3zM245.3 167.2c-.3 1-.5 2.2-.6 3.3l-6.1 1s-.6-.7-1.5-2.7l-.2-.4c-.4.2-.5.6 0 1.7l1.5 2.7 6.1-1s.4-3.4 1-4c.2-.4 0-.5-.2-.6zM236.8 158s.2 3.7.7 3.9c.2-.6.4-1.2.2-1.3-.6-.2-.7-3.9-.7-3.9s-1.2-4.2-1-5.4c.2-1.2-1-4-1-4l-.5-3.3a9.5 9.5 0 0 1-1.3-6.2l-.2-5.1s-1.8-10-2.2-15l-.4-10.3v-1.3h-.2v2.6c.1 2.7.2 7.1.5 10.3.4 5 2.2 15 2.2 15l.1 5c-.2 2.2.2 4.5 1.4 6.3l.5 3.3s1.1 2.8 1 4c-.3 1.1.9 5.4.9 5.4zM255.3 169.4c-.5-.8-.9-1.6-1-2.5-.7.6.1 2.9.8 3.7.8 1 6 1.3 7-.5v-1c-1.3 1.5-6 1.1-6.8.3zM262.8 163l-.7 1.7v.7l.5-1c.2-.5.2-1 .2-1.4zM255.4 164.2l.5-1.3s-.9.3-2.3-1.4c-1-1.2-1.2-3.5-1.1-5-.2.9-.5 4.7 1 6.3.9 1 1.6 1.3 2 1.4zM252.3 152.6a30 30 0 0 1 .3 2.6c.3-.9-.1-3.9-.1-3.9s0-2.1-.5-2.8c-.4-.7-1.4-4.5-1.4-4.5s0-1.4-.8-2c-.7-.7-1.3-3.4-1.3-3.4-.4-.6-.6-1.4-.6-2.2.1-1.3-1-2.7-1-2.7L245 128l-1.7-4.2-.9 2.5v.8l.7-2 1.8 4.2 2 5.7s1 1.3.9 2.7c0 .8.1 1.6.6 2.2 0 0 .5 2.7 1.3 3.4.7.6.7 2 .7 2s1 3.8 1.5 4.5c.4.7.4 2.8.4 2.8z"/>
    </g>
    <path d="M253 56l-.4 2.1v1l.1.6-2 .3-.2-.5c-.5-.8-1.4-2.6-1.7-2.8-.4-.4-1.3-6-.5-5.7.5.2 1 .6 1.2 1.1 0 0 4 .4 3.4 4z" fill="#FFCDD3"/>
    <path d="M252 59.7l-2.7.3-.3-.4a3 3 0 0 1 3-.4v.5z" fill="#000" opacity=".1"/>
    <path d="M252 61l-2.7 1-.1-.5-.2-1.4s1-2 2.7-.6l.1.7.2.8z" fill="#DCE6F2"/>
    <path d="M208 59.2l-3 1.8-.2-.6a32 32 0 0 1-1-1.8c-.2-.6-1.4-1.2-1.4-1.2-3.3-3 .4-5.8.4-5.8 1.8-4.2 4.2 1.2 4.2 1.2s.4 3 .2 3.2c-.2.2-.2 1-.2 1a12 12 0 0 1 1 2.2z" fill="#FFCDD3"/>
    <path d="M208 57.6l-3.6 2.4-.4-.8c.5-.5 2.3-2.3 3-2.2h.8l.2.6z" fill="#000" opacity=".1"/>
    <path d="M209 60.2l-3.8 1.8-.1-.7-.1-.5s2.2-1.8 2.8-1.8h1l.1.6.1.6z" fill="#DCE6F2"/>
    <path d="M244 69.5s-13.1 2.3-10.7 1.2c1.7-.7 2.3-2 2.4-3.3.1-1.2-.2-2.4-.6-3.5-.3-.9-.7-1.8-1.2-2.6 0 0 9.8-6.7 8-1-.3 1-.5 1.9-.5 2.8a8.6 8.6 0 0 0 2.6 6.4z" fill="#FFCDD3"/>
    <path d="M242.7 60.3a8 8 0 0 0-.6 2.6c-1 1-2.3.9-4 1-1.2 0-2.5.3-3.6-.2-.4-.9-.9-1.7-1.5-2.5 0 0 12-6.5 9.7-1z" fill="#000" opacity=".1"/>
    <ellipse fill="#FFCDD3" cx="237.5" cy="58" rx="5.5" ry="6"/>
    <path d="M244 69.4s-13.1 2.4-10.7 1.3c1.7-.7 2.3-2 2.4-3.5.7-.9 2-1.5 2.8-1.9a3.4 3.4 0 0 1 3.3.3 8.7 8.7 0 0 0 2.2 3.8zM252 60.5l-3 .5v-.3c.6-.5 1.7-.8 2.8-.7l.2.5zM209 59.7l-3.9 2.3-.1-1 4-2v.7zM252 107.5a82.4 82.4 0 0 1-14.7 2.4c-1-.3-4.4-.1-7.3.1v-2.6l21.5-3.4c0 1.2.2 2.3.5 3.5z" fill="#000" opacity=".1"/>
    <path d="M257 105.9s-18.1 4-20.1 3.4c-2-.6-12 .5-12 .5-4.5 3.3-2.7-1.4-2.7-1.4s-.5-2.4 0-4.4c.3-1.4.5-2.9.5-4.4 0 0-.2-3 .3-3.8.6-.7 1-6 1-6s.4-3.4.3-4.2v-3l.6-3.6c-3.8-.3-15.4-7-15.4-7-.7-2.5-5-8-5-8l-.5-1.4c-.3-.8 4.1-2.6 4.1-2.6s3.5 4 4.2 5.2a22 22 0 0 0 3.2 3.1l1.1.1c1 .3 1.7.7 2.4 1.3 1-.1 2.2.3 3 1 0 0 2-.4 2.4 0 .4.3 2.1 0 2.1 0s1.6-4 2.8-3c1.2 1.2 6 1 6 1 .7-1 2.2-1.7 3.2-2 .8-.4 1.7-.5 2.6-.2.4 0 .7.2 1 .4l3 3s.9-1.3.8-1.5c-.1-.3 1-.5 1-.5l2-.7c.5-.2 1 .4 1 .5 0-.1-.4-1.3-.3-2.3.1-1-.7-1.8-.7-1.8 1.6-4.5 5.7-1 5.7-1s.5 2.4.2 3.4c-.4 1 .5 2.8.4 3.4l.3 2.3c0 1-.4 2.9-.7 3.7-.2.8-2.6 2.8-2.6 2.8s0 3-1 4.7c-1 1.7-.1 7.5-.1 7.5s1.2 4.5 2.5 5.9c1.2 1.4 3.4 9.6 3.4 9.6z" fill="#3F3D56"/>
    <path d="M229 72s-.8-1.6-1.3-1.8c-.6-.1-1.2-.3-1.7-.6l.3-.6s2.1.4 2.5 1c.4.5.1 2 .1 2zM218 68.6c0 .6-4 1.4-4 1.4l2-3c.7.4 1.4.9 2 1.6z" fill="#000" opacity=".1"/>
    <circle fill="#575988" cx="206" cy="62.5" r="1"/>
    <circle fill="#575988" cx="207" cy="63.5" r="1"/>
    <circle fill="#575988" cx="207" cy="64.5" r="1"/>
    <circle fill="#575988" cx="208" cy="64.5" r="1"/>
    <circle fill="#575988" cx="253.5" cy="62.5" r="1"/>
    <circle fill="#575988" cx="253.5" cy="64.5" r="1"/>
    <circle fill="#575988" cx="254.5" cy="64.5" r="1"/>
    <path d="M230 86s11.7 15.5 20 5.8c0 0-13.6 2.8-20-5.8zM223 95s7.1 0 8 1.4v1.5h-1.3c-.7-.3-5.1-1.7-6.6-.9l-.1-2z" fill="#000" opacity=".1"/>
    <path d="M223 95s7.1 0 8 1.4v1.5h-1.3c-.7-.3-5.1-1.7-6.6-.9l-.1-2z" fill="#656691"/>
    <path d="M227 79c.7 1.7 1.7 3.3 2.8 4.8 1.2 1.7 2.6 3 4.2 4.2 0 0-6.9-8-7-9zM224 71s1.2 4.5 4 6l-4-6zM223 72s-.8 4 4 6c0 0-2-.6-4-6zM250 67s3.1 2 4 3c0 0-2.2-3.2-4-3z" fill="#000" opacity=".1"/>
    <path d="M236 64l.4.8.7.2c1.8 0 3.6 0 5.2-.8.3 0 .6-.3.8-.5.3-.4.3-1 .4-1.4.2-1 .7-1.8 1-2.7.5-1.5.6-3.1.4-4.7l-.5-1.4c-.5-.7-1.4-1-2-1.5-.6-.5-1-1.3-1.8-1.7-.7-.4-1.5-.3-2.2-.2a11 11 0 0 0-4 1.8c-.4.3-.9.7-1.3.6-.5 0-.8-.4-1-.8-.4.9-.5 1.8-.4 2.7v.4c0 .2-.1.3-.3.5-.4.5-.6 1.4-.2 1.9l.7.6c.4.4.3 1 .3 1.6l.1.5c.2.2.5.3.8.2l.7-.1c.3 0 .5.2.7.5.8 1 1.2 2.2 1.6 3.6z" fill="#2D293D"/>
    <g opacity=".1" fill="#000">
      <path d="M243.9 63a2 2 0 0 1-.8.5c-1.6.8-3.5.8-5.4.8-.2 0-.5 0-.7-.2a1 1 0 0 1-.3-.8 10 10 0 0 0-1.7-3.6c-.1-.3-.4-.4-.7-.5a2 2 0 0 0-.7 0c-.3.2-.6.1-.8 0a.9.9 0 0 1-.1-.6c0-.6 0-1.2-.3-1.7l-.7-.5c-.3-.4-.3-.9-.2-1.3-.3.5-.4 1.2 0 1.7l.7.6c.3.4.3 1 .3 1.6l.1.6c.2.1.5.2.8.1l.8-.1c.2 0 .5.3.7.5a10 10 0 0 1 1.6 3.7c0 .3.2.6.5.8l.6.1c1.8 0 3.7 0 5.3-.7l.8-.6.3-.6-.1.1zM232 54.3l.2-.4v-.4c-.1-.7 0-1.5.2-2.2a6.1 6.1 0 0 0-.4 3z"/>
    </g>
    <path d="M235 67.7s8.3 1 9-.7M249 64s4-.1 5 1" fill="#000" opacity=".1"/>
    <path d="M47 50v17c0 .6-1 1-2 1H2c-1 0-2-.4-2-1V50c0-.5 1-1 2-1h43c1 0 2 .5 2 1z" fill="#FFF"/>
    <path d="M47 50.2v16.6c0 .5-1 1-2.1 1H2.3c-1.1 0-2-.5-2-1V50.2c0-.5.9-1 2-1h42.6c1.1 0 2 .5 2 1z" opacity=".2" fill="#6C63FF"/>
    <path fill="#6C63FF" d="M20 55h22v1H20z"/>
    <path d="M9 54a5 5 0 0 0-4.8 3.9c-.6 2.3.2 4.8 2 6v-.3c0-.6.5-1.1 1-1.2A2 2 0 0 0 9 63.5a2 2 0 0 0 1.7-1.1c.6 0 1 .6 1 1.2v.4a5.7 5.7 0 0 0 2-6.1A5 5 0 0 0 9 54zm2 6.9c-.1 1.1-1 2-2 2s-2-.9-2-2c-.2-.6-.3-1.3 0-1.8.2-.6.6-1.1 1.1-1.4v-.4l.1-.5.5-.2c-.3 0-.6.4-.6.7l.1.4v-.1c0-.2 0-.3.2-.5 0-.3.3-.5.6-.5-.2 0-.3.2-.5.4.2-.2.5-.2.7 0 .2 0 .4.3.4.6.6.2 1.1.7 1.4 1.3.2.6.2 1.4 0 2z" fill="#6C63FF" fill-rule="nonzero" opacity=".2"/>
    <path fill="#6C63FF" opacity=".2" d="M20 57h22v1H20zM20 58h22v1H20z"/>
    <path d="M76 100.5l-.3-2.7c0-1.1-1.4-2-1.4-2s-1-2.2-1.5-2.5a19 19 0 0 1-2.4-3.1c0-.6-.3-1.1-.6-1.5l-1.5-2.4c-.2-.3-.1-.5-.5-2.3v-.3l-.1-.1c.8-.9 1-2.1.7-3.2 0-.2-.2-.4-.4-.6-.4-.3-1-.2-1.5-.5l.5-2.1c0-.5.2-1.2-.3-1.4l-.5-.2c-.7-.3-1.2-1-1.4-1.9-.2-.7-.2-1.5-.1-2.3 0-.7.3-1.4.4-2.2.1-1.4-.2-2.8-1-4a3 3 0 0 0-1.2-1c-.4-.3-1-.3-1.4-.6-1-.6-.9-2-1.6-2.9-.7-.8-2-.8-3.1-.5-1.1.3-2.2.7-3.3.6-.7 0-1.3-.4-2-.5a2 2 0 0 0-.7 0c-.5.1-1 .4-1 1l-.1.3v1c0 .1 0 .4-.2.5 0 .2-.3.3-.4.4-.2.2-.2.3-.2.5 0 .5.5.9.9 1a6.9 6.9 0 0 0-2 4.8c.1 2.8 1.7 5.2 4.1 6.3v.2a9 9 0 0 1-.4 1c-.5-.2-1-.2-1.6.1-.7.5-2 .5-2.4.4-.4 0-4.2-.6-4.5-.5-.4.2-1-.4-1.4.3-.4.8-.5 1.2-1 1.4-.4.2-1 .8-1 1l-1 .8s-1 1-1.5 1.2c-.6 0-1.7.9-1.7.9l-1.4 1s-1 .2-.7-.5c.3-.7-.5-1.6-.5-1.6S31 78.2 31 77.4c0-.7-1.4-4-1.4-4h-.2v-.2c-.3-.7-.6-1.6-1-2.2-.4-1-.7-1.1-.7-1.1s-6-4.7-9.9-3.3C14 68.1 25 72.3 26 72.7c.3.1.6.6.8 1.2-.9.5-1.6 1.2-2.1 2 0 0 2.3 5.4 2.4 6.8 0 1.3 1.6 5 1.6 5s.6 2.9 3.8 2.7c0 0 4.4.9 5.3 0 1-.8 1.8-1.5 2.3-1.5l.9-.7s-1.5 9.4-2.2 10.2c-.7.9-7 11.4-4.7 13.3a45 45 0 0 0 5.6 3.9c.2 0 .8-1 1.6-1.6v.5c0 3.8.5 9.5 1.1 10.8 1 1.9.6 5.5.6 5.5.5.3 1.1.4 1.7.4v.4c.6 2.1 1.5 5.4 2 6.3A39.8 39.8 0 0 0 48 148l.6 4-.8 10.7v1.3l-.7 1.6-.3.8c-.3.1-.6.4-.7 1l-.8 4.7s-.2 2-.6 2.5c-.3.5-.7 3.5 2 3.8 2.5.4 3.7-1.4 3.7-1.4l-.1-8.2.1-.2v-.2h.1v-.1c.3-.9.4-1.7.3-2.5v-.1-.1-.1-.2-.2-.1-.4l.1-.2.1-.4v-.1l.2-.4v-.1l.2-.3.7 2.3s.4 1.8.2 2.2c-.2.4.2 2 .5 2.1l-.3 2.1-.3 3.6v.3c-.2 1.1.3 2.8.3 2.8 2.4 3 5.3.3 5.3.3s.3-1.6 0-2c-.3-.2-.2-1.4-.2-1.4l.2-4.8c0-2-1.6-3.8-1.6-3.8H56c-.3-.7-.6-1.7-.6-2.1.1-.7-.3-8.3-.3-8.3.2-2 .2-4.1 0-6.2l.2-1 .4-3.8v-.5-.8l.2-1.9.7-4s.5-2 1.2-3.1v-.1l.2-.2v-.2l.4-.7v-.3h.1v-.2l.1-.1.1-.2v-.2l.1-.1v-.2l.1-.1.1-.2.5-1.4.2-.3c1.5 0 2.6.2 2.6.2s.5-3.7.4-6.1a23.1 23.1 0 0 1 .4-5.2c.8.6 1.4-1.5 1.4-1.5L64 114v-.3l1.3.3.6-.1c1 .5 1.9 1 3 1.3l1.5-3.1 1.1-1.8c.5-.7 2.3-2.7 2.2-3 0-.4.6-2.6 1.2-3.6.7-1 1-3 1-3zm-6.8 2.4c-.7.3-1.3 1.8-1.3 2.3 0 .5-.7 2.6-1.5 2.8-.6.2-1.9 1.4-2 1.6l-.7.1-.7-4c-.5-.9.5-3.9.5-3.9s.1-3 .8-3.8c.6-.7.5-2.5.5-2.5l.2-1.1c0-.3.9 0 .9 0s1.7 1 1.9 2.3c.2 1.5 2 3.9 2 3.9s-.2.8 0 1.3c.4.4 0 .7-.6 1z" fill="url(#c)" fill-rule="nonzero"/>
    <path d="M26 77c1-1.4 3-2.2 5-2v3h-2.2l-1.7-.4L26 77z" fill="#4C4981"/>
    <path d="M26 77c1-1.4 3-2.2 5-2v3h-2.2l-1.7-.4L26 77z" fill="#000" opacity=".1"/>
    <path d="M30 75l-2.5 2-.1-1c-.1-.9-.4-2.4-1-2.7-1-.4-11.3-4.6-7.6-6 3.6-1.4 9.3 3.2 9.3 3.2s.2 0 .7 1.1l.8 2.3.4 1.2z" fill="#AE6E79"/>
    <path fill="#4C4981" d="M49.8 78.2l.3-.2.9 1.2-.7 1.8-1.3-.6.3-1.4z"/>
    <path d="M46.7 168s-.8 0-1 1.1c-.4 1.2-.9 4.6-.9 4.6s-.2 2-.5 2.5c-.4.4-.8 3.4 1.9 3.7 2.6.4 3.8-1.4 3.8-1.4v-8.1l-3.3-2.4z" fill="#444053"/>
    <path d="M54.2 167s1.7 1.8 1.6 3.8l-.1 4.8s-.2 1 .1 1.4c.4.3 0 1.9 0 1.9s-3 2.7-5.5-.3c0 0-.4-1.6-.3-2.7l.8-6 3.4-2.9z" fill="#444053"/>
    <path d="M59 129.8s-1.6 4.8-2.3 5.9c-.7 1-1.2 3.1-1.2 3.1l-.7 4.1-.2 2.8c0 1-1.5 14.4-1.5 14.4l-2.6 3.4s-1.1 2.4-1 3.4c.2 1 0 2.6-.4 3 0 0 0 3.2-.2 3.9 0 .7.4 2.7 0 3-.3.4-4.8.2-4.9-.4-.1-.5.6-3.3.6-3.3l.4-2.7s.7-1.5.6-2c-.2-.4.3-1.5.3-1.6 0-.1.9-1.7.7-2.3-.1-.6 1-13.4 1-13.4l3-23.1 8.4 1.8z" fill="#AE6E79"/>
    <path d="M59 129.8l-.6 1.6c-.5 1.5-1.3 3.6-1.7 4.3-.7 1.1-1.2 3.1-1.2 3.1l-.7 4.1-.2 2.8-.5 5.4-1 9-2.6 3.4-.3.7c-.3.8-.8 2-.6 2.7.1 1-.2 2.6-.5 3 0 0 0 3.2-.2 3.9 0 .7.4 2.7 0 3-.3.4-4.8.2-4.9-.4-.1-.5.6-3.3.6-3.3l.4-2.7s.7-1.5.6-2c-.2-.4.3-1.5.3-1.6 0-.1.9-1.7.7-2.3a215.7 215.7 0 0 1 1-13.4l2.7-19.9.2-1.6.2-1.6 8.3 1.8z" fill="#000" opacity=".1"/>
    <path d="M56 176.4c0 .3-4.2.8-4.8.5-.6-.4 0-5 0-5l.3-2.2c-.3 0-.8-1.7-.6-2.2.2-.4-.2-2-.2-2L50 163l-.4-1.4a67.2 67.2 0 0 1-3-13.8c.2-.6-.2-4.7-.2-4.7s-.5-4.2-1.1-5.5a54.8 54.8 0 0 1-2.3-8.1l7.3-.6h2c0 .2-.1.8 0 1.6 0 2.2.2 6 .5 7 .4 1.4.9 5.6.7 6-.2.4-.2 3.2-.2 3.2.4 1 .5 2.2.6 3.4l-.1 6.1s.4 7.6.3 8.4c-.1.7 1 3 1 3.4a109.1 109.1 0 0 0 .9 8.3zM60 85.3l-.5.6-.3.3-2 2.2-5 .6-2.5-.8-.7-.1.1-3.1c.2-2.2.6-4.9 1.5-5.6.5-.4.9-.9 1.2-1.5l.4-1.2v-.2c.3-.8.5-1.5.6-2.3l1.5-.8c2.3-1.2 6.2-2.8 4.8.8a14 14 0 0 0-.5 1.8c-.5 2-.2 3.1.2 3.8 0 .1 0 .2.2.3 0 .2.2.3.3.4l.6 3.9v.3l.1.6z" fill="#AE6E79"/>
    <path d="M57.7 75c-.3.7.1-.4 0 0-1.2.8-4 3-5.5 3-1 0-1.3-.2-2.2-.5l.6-2.4s9.2-4.7 7 0z" fill="#000" opacity=".1"/>
    <path d="M60 71c0 3.6-2.5 6.6-5.8 7h-.7c-3.6 0-6.5-3.1-6.5-7s3-7 6.5-7c3.6 0 6.5 3.1 6.5 7z" fill="#AE6E79"/>
    <path d="M61 100.4l-1 2.4-1.8.1c-4 .1-12.7.3-13-.7-.2-.3-.2-.6-.2-.9 0-1.5.7-4 .7-4l.4-5-.4-3.6.7-2.8 2-1.4s1 1.4 1.5 1.5c.5.1 1.2.8 1.2.8s1.7 1 2.3.5c.6-.6 5-3.3 5-3.3l2.3 2.6.3 13.8z" fill="#000" opacity=".1"/>
    <path d="M61 100.4l-1 2.4-1.8.1h-1.9c-3 .1-7.4.1-9.7-.2-.8-.1-1.4-.3-1.5-.5v-.5l-.1-.3c0-1.6.7-4 .7-4l.4-5.1-.4-3.7.7-2.7 1.4-1 .6-.4.7 1 .8.5c.5.1 1.2.8 1.2.8s1.7 1 2.3.5c.4-.5 3.1-2.2 4.3-3l.7-.3.3.4 2 2.2.3 13.8z" fill="#FFF"/>
    <path d="M30 75.2L27.1 77l-.1-.9a5.6 5.6 0 0 0 2.6-2.1l.4 1.2z" fill="#000" opacity=".1"/>
    <path d="M39.4 81.3l-.6-.1s-1 1-1.5 1.1a8 8 0 0 0-1.7 1l-1.3 1s-1 .1-.7-.6c.3-.7-.6-1.6-.6-1.6s-1.6-3.5-1.6-4.2C31.4 77 30 74 30 74s-1.8 3.5-5 2.4c0 0 2.3 5.3 2.4 6.6 0 1.4 1.6 5 1.6 5s.6 2.8 3.7 2.6c0 0 4.3.9 5.2 0 1-.8 1.8-1.4 2.3-1.5.3-.1.6-.3.8-.6v-3.7l-1.6-3.5z" fill="#3F3D56"/>
    <path d="M32 85s1.7 2.7.7 3l-.7-3zM58 104c-3.9 0-12.5.1-12.9-.5a1 1 0 0 1-.1-.5l12.7.4.3.5zM60 130.3l-.6 1.2-6-.1h-2.2a21 21 0 0 0-3.6.3c-1 .2-2 .3-3.1.3l-.5-1.4 7.4-.4.2-1.2 8.4 1.3z" fill="#000" opacity=".1"/>
    <path d="M62 118.8l-.5 1-.2 1c-.2 1-.4 3.1-.3 4.8.1 2.3-.4 6-.4 6s-11-1-14.1 0c-3.2 1-4.8 0-4.8 0s.4-3.6-.6-5.5a41.9 41.9 0 0 1-.8-13.9c.6-.8 3.4-9.2 3.4-9.2h.7l1.7.1 9.6.6h1.6l.1.6 4.6 14.5z" fill="#65617D"/>
    <path d="M67 115v1s-4.2-1.5-4-3.4c.2-1.8 0-1.6 0-1.6l3.4.3.5 3.8z" fill="#4C4981"/>
    <path d="M67 115v1s-4.2-1.5-4-3.4c.2-1.8 0-1.6 0-1.6l3.4.3.5 3.8zM36 86c.5.4 1.2.8 2 1l-.6-.3-1.3-1c-.3-.2-.7-.6-1.1-.7l1 1zM36.5 87l.4.5V89l-1-1.5c0-.3-.2-.6-.4-.8 0-.1-.6-.6-.5-.7.2-.2 1.3.8 1.5 1zM57.7 97.9c.5-.1 1-.4 1.3-.9-.7.1-1.4.5-2 .7-.7.3-1.4.2-2-.2.8.6 1.9.6 2.7.4zM55 92l-.4-.1A39 39 0 0 1 51 89a8.9 8.9 0 0 0 4 3zM58 99l1-.1c.5-.1.8-.4 1-.9l-.4.1c-1.1.7-2.4.9-3.6.6.6.4 1.3.3 2 .3zM53 113.4c-.7.3-1.3.5-2 .6h-1.6l-2.6-.3-1.2-.1c-.2 0-.8 0-.5-.5.1-.2 1 0 1.2 0l1.3-.1a27.2 27.2 0 0 1 5.4.4zM50 114.4c-.4 0-1 .4-1.5.5a6 6 0 0 1-4.5-.9l6 .4zM43.8 116l.4.3c1 .3 1.9 0 2.8-.3-.2.5-.7.7-1 .8-.7.2-1.4.3-2.1.1-.2 0-.8-.2-.9-.5-.1-.4.6-.4.8-.3zM50.5 117.5c.3 0 .6 0 .9.2 1.1.2 2.3-.1 3.4-.4l4.2-.3-.9.3-1 .2a22.6 22.6 0 0 1-6 .5c-.5 0-1.6 0-2.1-.3.5-.2 1-.3 1.5-.2zM50.5 80.4s.1 2.8-.3 4.1a45.4 45.4 0 0 0-1.8 6s-1 8.4-1.3 12.4V103.8c-.6 4-4 10-5.1 10.5l-1 .7c0-1.7 0-3 .3-3.2.6-.8 3.5-9 3.5-9h.6v-.4c0-1.6.7-4 .7-4l.4-5-.4-3.7.7-2.7 1.4-1c.2-2.1.6-4.7 1.6-5.4a4 4 0 0 0 1.1-1.5c.2 0-.1-.1-.1-.1l-.3 1.4z" fill="#000" opacity=".1"/>
    <path d="M50 78.1c-.5-.2-1-.1-1.5.2-.6.5-2 .5-2.3.4-.3-.1-4-.6-4.3-.5-.3.1-.8-.5-1.2.3-.4.8-.6 1.2-1 1.4-.3.2-1 .8-.9.9l-1 .9 2.2 7.5s-1.4 9.6-2 10.4c-.7.8-6.7 11.6-4.5 13.5 1.6 1.4 3.4 2.7 5.3 3.9.2.1 1-1.6 2.2-2.1 1.2-.6 4.8-7.8 5-11.8.2-4 1.3-13.2 1.3-13.2l1.6-6.3c.5-1.3.4-4.2.4-4.2L50 78z" fill="#3F3D56"/>
    <path d="M62 119l-.6 1.1-.1.9-.3-.1c-.8-.6-5.7-5.3-5.9-9.5-.2-3.1 0-5.8 0-7v-.6s3.7-4.3 3.3-5.8a164 164 0 0 1-1.4-9.7l-.1-1.1-.3-1.8L56 81l.6.1.4.4.7 3.8 2.2 2.4.3 14.1-1 2.5-2.1.1H57l5 14.6z" fill="#000" opacity=".1"/>
    <path d="M64.7 95.9s-.8-.4-.9 0l-.2 1s.2 1.9-.4 2.6c-.6.7-.7 3.7-.7 3.7s-1 3-.6 4a308 308 0 0 1 1.6 12.3s-.5 2-1.2 1.4c-.7-.7-5-5.4-5.2-9.5a80.9 80.9 0 0 1 0-7.6s3.3-4.3 3-5.8c-.4-1.6-1.3-9.7-1.3-9.7l-.2-1.3-.1-1.4v-.2l-.6-4.4c.1 0 3.4.8 3.8 1.3.4.4 3 1 3 1 1 .3 1.5 1 1.8 2v.2c.4 1.8.2 2 .5 2.3.2.3-2.3 8-2.3 8z" fill="#3F3D56"/>
    <path d="M63 114c-1.2-.2-3-.6-3-1.6s1.4-1.3 2.5-1.4l.5 3z" fill="#000" opacity=".1"/>
    <path d="M67 113.5l-.6.3-2 .2s-4.5-.2-4.4-1.6c0-1 2-1.3 3.2-1.4h.7s3.3 2.3 3 2.5z" fill="#AE6E79"/>
    <path d="M67 113.8l-.5.2c-1.2-1.2-2.7-2.7-3.5-2.8l.2-.2h.8s3.2 2.5 3 2.8z" fill="#000" opacity=".1"/>
    <path d="M66.5 87l1.2.2 1.5 2.3c.3.5.5 1 .5 1.5 0 0 1.7 2.8 2.3 3.2.5.3 1.4 2.4 1.4 2.4s1.3 1 1.3 2 .1 2 .3 2.8c0 .2-.2 2.1-.8 3-.6 1-1.1 3.2-1.1 3.6 0 .4-1.6 2.4-2.1 3a13 13 0 0 0-1 1.9l-1.6 3.1s-3.2-5.2-4.4-5.5c0 0 1.3-1.3 2-1.6.7-.2 1.3-2.3 1.3-2.8s.6-2 1.3-2.3c.6-.3.9-.6.6-1-.2-.4 0-1.3 0-1.3s-1.7-2.4-2-3.9c-.2-1.4-1.7-2.3-1.7-2.3l-1-2.4 2-5.9z" fill="#3F3D56"/>
    <path d="M70.3 98c.7-.6 1.7-1 2.7-1-.6.1-1.3.3-1.8.7a4 4 0 0 0-.5.6c-.1.3-1.4 2-1.7 1.7-.3-.4 1-1.7 1.3-2zM68 96c.5 0 .9-.2 1.1-.5l.3-.9.5-1.5.1-.3-.1-.3a2 2 0 0 0-.4-.5c-.3.2-.3.7-.5 1l-.4 1-.6 2zM68 84.3l-.4.5c-.5.4-1.2.7-1.2 1.4l-.1.6c-.2.2-.6.2-.9.2l-.7-.3c-.3-.3-.4-.8-.6-1.2-.3-.3-.8-.5-1.3-.5l-1.4.1a3.8 3.8 0 0 1-1.7-.3 4 4 0 0 1-1.2-.7c-.5-.5-.8-1.1-.8-1.7l.3-1.2c.2-1-.6-2-1.3-2.9l-1-.9c-.5-.5-.8-1-1.1-1.6a5 5 0 0 1-.2-2v-2.1c-.2-2.5-2.2-4.4-4.3-5.4H50c1.7-2 4.3-2.7 6.7-2 2.5.6 4.3 2.7 4.8 5.2.4 2.5-.5 5-2.6 6.6v.3c-.5 2-.2 3.1.2 3.8 0 0 3.5.8 4 1.2.4.5 3.2 1.1 3.2 1.1.8.3 1.5 1 1.7 1.8z" fill="#000" opacity=".1"/>
    <path d="M49.2 64.6l.4-.4c.5-.5 0-1.3.2-2 .2-.6 1-1 1.7-.9l2 .5c1 .1 2-.3 3.1-.6 1-.3 2.3-.3 3 .5.8.8.7 2.3 1.6 2.9.4.3 1 .3 1.4.5.5.3.9.7 1.1 1.2.7 1.1 1 2.5 1 4-.2.7-.4 1.4-.4 2.1-.1.8 0 1.6.1 2.3.2.8.6 1.6 1.3 1.9.2 0 .4 0 .5.2.4.2.4.9.3 1.4l-.5 2c.4.4 1 .3 1.5.6l.3.6c.4 1.2 0 2.5-.8 3.4-.5.4-1.2.7-1.2 1.3l-.1.7c-.2.2-.5.2-.8.2-.3 0-.5-.2-.8-.3-.3-.3-.3-.8-.6-1.2-.2-.3-.7-.6-1.2-.5H61c-1 .1-2.1-.3-2.9-1-.5-.4-.8-1-.8-1.7 0-.4.2-.8.3-1.1.2-1.1-.5-2.2-1.3-3-.8-.8-1.6-1.5-2-2.5-.5-1.4 0-2.8-.2-4.2C54 69 52 67.1 50 66.1c-.5-.3-1.2-.9-.7-1.5z" fill="#444053"/>
    <path d="M64.3 86.1c-.3-.3-.3-.8-.6-1.2-.3-.4-.7-.6-1.2-.6l-1.4.2a4 4 0 0 1-3-1.1c-.4-.5-.7-1-.7-1.7l.3-1.2c.1-1.1-.6-2.2-1.3-3-.8-.8-1.7-1.5-2-2.6-.5-1.3 0-2.8-.2-4.2-.2-2.5-2.3-4.5-4.3-5.5-.5-.3-1.3-.9-.8-1.5l.5-.4c.4-.5 0-1.3.2-2l.1-.3c-.5 0-1 .4-1 1-.2.6.2 1.4-.2 1.9l-.5.4c-.6.6.2 1.2.7 1.5 2 1 4.1 3 4.3 5.5.2 1.4-.3 2.9.2 4.2.3 1 1.2 1.8 2 2.6s1.5 1.9 1.3 3l-.3 1.2c0 .6.4 1.2.8 1.6a4 4 0 0 0 3 1.1h1.3c.5 0 1 .1 1.3.5.2.4.2.9.6 1.2l.7.3c.3 0 .7 0 .8-.2l.1-.4c-.3 0-.5-.1-.7-.3z" fill="#000" opacity=".1"/>
  </g>
</svg>
