<svg xmlns="https://www.w3.org/2000/svg" width="709" height="709" viewBox="0 0 709 709"><g fill-rule="evenodd" clip-rule="evenodd"><path fill="#8B4D2D" d="M582.817 434.313h-62.719c-4.399 18.442-15.462 86.91-15.462 107.27 0 8.666 7.092 15.757 15.757 15.757h62.424c8.666 0 15.757-7.091 15.757-15.757 0-3.251-.249-7.428-.684-12.24l36.536-85.045-7.237-3.816-33.851 53.421c-3.603-23.654-8.151-48.391-10.521-59.59z"/><path fill="#7B3F1F" d="M516.39 452.85c-2.417 13.171-5.228 30.119-7.494 46.017-10.937-1.924-19.246-11.471-19.246-22.957 0-12.875 10.438-23.312 23.312-23.312 1.164-.001 2.309.086 3.428.252zm-3.428-5.06c-15.528 0-28.119 12.59-28.119 28.119 0 13.915 10.11 25.468 23.385 27.719-2.19 15.96-3.718 30.321-3.582 37.955.153 8.665 7.09 15.757 15.758 15.757h30.604V434.313H520.1c-.762 3.282-1.738 8.057-2.827 13.805-1.407-.216-2.846-.328-4.311-.328z"/><path fill="#7B3F1F" d="M616.238 434.604c-4.229 8.421-.832 18.675 7.589 22.904 8.421 4.229 18.676.832 22.903-7.589l-30.492-15.315z"/><path fill="#532318" d="M583.716 434.313H518.3c-1.19 0-2.162.973-2.162 2.164 0 1.189.972 2.163 2.162 2.163h65.416c1.189 0 2.163-.974 2.163-2.163 0-1.191-.974-2.164-2.163-2.164z"/><path fill="#CF8C46" d="M553.979 490.118c-.306.273-.532.6-.664.975-.132.373-.158.77-.093 1.174-.408-.022-.799.047-1.158.219-.356.172-.656.435-.895.766-.274-.306-.601-.531-.976-.663-.372-.132-.769-.158-1.174-.093.021-.409-.046-.801-.218-1.158-.173-.358-.434-.657-.767-.896.306-.272.533-.599.665-.973.13-.375.158-.771.089-1.175.411.021.802-.048 1.159-.218.359-.173.657-.435.897-.767.273.304.599.532.974.664.374.131.77.158 1.174.092-.021.409.047.8.22 1.158.173.356.434.656.767.895zm3.743 14.167c1.858-.891 2.132-4.198.627-7.422 3.368 1.145 6.627.517 7.312-1.428.684-1.944-1.462-4.477-4.807-5.69 3.192-1.572 5.051-4.321 4.16-6.181-.891-1.858-4.199-2.132-7.423-.625 1.146-3.369.517-6.628-1.428-7.311-1.944-.686-4.475 1.461-5.691 4.805-1.572-3.192-4.32-5.051-6.18-4.159-1.857.891-2.13 4.197-.625 7.422-3.369-1.147-6.628-.517-7.312 1.428s1.463 4.476 4.807 5.691c-3.191 1.571-5.052 4.32-4.161 6.18.892 1.857 4.199 2.13 7.423.625-1.145 3.369-.517 6.628 1.429 7.312 1.943.685 4.476-1.463 5.691-4.807 1.572 3.193 4.319 5.053 6.178 4.16z"/><circle fill="#FFE319" cx="551.008" cy="490.279" r="5.562"/><path fill="#532318" d="M81.549 207.762h173.706v74.601H81.549z"/><path fill="#C27833" d="M79.099 207.762h178.606v21.781H79.099z"/><path fill="#7B3F1F" d="M90.262 221.919c1.8 0 3.268-1.468 3.268-3.268 0-1.799-1.468-3.267-3.268-3.267-1.799 0-3.267 1.468-3.267 3.267 0 1.8 1.468 3.268 3.267 3.268z"/><path fill="#7B3F1F" d="M246.542 221.919c1.8 0 3.267-1.468 3.267-3.268 0-1.799-1.467-3.267-3.267-3.267-1.799 0-3.268 1.468-3.268 3.267.001 1.8 1.47 3.268 3.268 3.268z"/><path fill="#C27833" d="M79.099 231.721h178.606v21.781H79.099z"/><path fill="#7B3F1F" d="M90.262 245.878c1.8 0 3.268-1.468 3.268-3.268 0-1.8-1.468-3.268-3.268-3.268-1.799 0-3.267 1.468-3.267 3.268 0 1.8 1.468 3.268 3.267 3.268z"/><path fill="#7B3F1F" d="M246.542 245.878c1.8 0 3.267-1.468 3.267-3.268 0-1.8-1.467-3.268-3.267-3.268-1.799 0-3.268 1.468-3.268 3.268.001 1.8 1.47 3.268 3.268 3.268z"/><path fill="#C27833" d="M79.099 255.68h178.606v21.781H79.099z"/><path fill="#7B3F1F" d="M90.262 269.836c1.8 0 3.268-1.467 3.268-3.266 0-1.8-1.468-3.268-3.268-3.268-1.799-.001-3.267 1.468-3.267 3.268 0 1.8 1.468 3.266 3.267 3.266z"/><path fill="#7B3F1F" d="M246.542 269.836c1.8 0 3.267-1.467 3.267-3.266 0-1.8-1.467-3.268-3.267-3.268-1.799-.001-3.268 1.468-3.268 3.268.001 1.8 1.47 3.266 3.268 3.266z"/><path fill="#CF8C46" d="M468.505 630.632c2.368 0 4.307-1.938 4.307-4.307V428.188c0-2.368-1.938-4.307-4.307-4.307-2.37 0-4.308 1.938-4.308 4.307v198.138c0 2.367 1.938 4.306 4.308 4.306z"/><path fill="#BCBEC0" d="M472.812 466.524v-38.337c0-2.368-1.938-4.307-4.307-4.307-2.369 0-4.308 1.938-4.308 4.307v38.337h8.615z"/><path fill="#A7A9AC" d="M430.385 420.218h76.24c2.487 0 4.522 2.035 4.522 4.522 0 2.488-2.035 4.523-4.522 4.523h-76.24c-2.487 0-4.523-2.035-4.523-4.523-.001-2.487 2.035-4.522 4.523-4.522z"/><path fill="#A7A9AC" d="M428.612 404.765c1.528 0 2.778 1.25 2.778 2.777v18.944c0 1.527-1.25 2.777-2.777 2.777h-.001c-1.527 0-2.777-1.25-2.777-2.777v-18.944c0-1.527 1.25-2.777 2.777-2.777z"/><path fill="#A7A9AC" d="M440.025 404.765c1.528 0 2.777 1.25 2.777 2.777v18.944c0 1.527-1.249 2.777-2.777 2.777-1.527 0-2.777-1.25-2.777-2.777l.001-18.944c0-1.527 1.249-2.777 2.776-2.777z"/><path fill="#A7A9AC" d="M451.438 404.765c1.528 0 2.777 1.25 2.777 2.777v18.944c0 1.527-1.249 2.777-2.777 2.777-1.527 0-2.777-1.25-2.777-2.777v-18.944c0-1.527 1.25-2.777 2.777-2.777z"/><path fill="#A7A9AC" d="M462.852 404.765c1.527 0 2.777 1.25 2.777 2.777v18.944c0 1.527-1.25 2.777-2.777 2.777-1.527 0-2.776-1.25-2.776-2.777v-18.944c-.001-1.527 1.248-2.777 2.776-2.777z"/><path fill="#A7A9AC" d="M474.265 404.765c1.527 0 2.778 1.25 2.778 2.777v18.944c0 1.527-1.251 2.777-2.778 2.777-1.527 0-2.777-1.25-2.777-2.777v-18.944c-.001-1.527 1.249-2.777 2.777-2.777z"/><path fill="#A7A9AC" d="M485.678 404.765c1.528 0 2.777 1.25 2.777 2.777v18.944c0 1.527-1.249 2.777-2.777 2.777s-2.777-1.25-2.777-2.777v-18.944c-.001-1.527 1.248-2.777 2.777-2.777z"/><path fill="#A7A9AC" d="M497.091 404.765c1.528 0 2.778 1.25 2.778 2.777v18.944c0 1.527-1.251 2.777-2.779 2.777h.001c-1.527 0-2.777-1.25-2.777-2.777v-18.944c-.001-1.527 1.249-2.777 2.777-2.777z"/><path fill="#A7A9AC" d="M508.504 404.765c1.527 0 2.778 1.25 2.778 2.777v18.944c0 1.527-1.251 2.777-2.778 2.777-1.527 0-2.777-1.25-2.777-2.777v-18.944c0-1.527 1.249-2.777 2.777-2.777z"/><path fill="#7B7E7F" d="M428.123 424.74h80.763c1.244 0 2.262 1.018 2.262 2.262v-.001c0 1.244-1.018 2.263-2.263 2.263h-80.762c-1.243 0-2.262-1.018-2.262-2.262v-.001c0-1.243 1.019-2.261 2.262-2.261z"/><path fill="#CF8C46" d="M401.654 149.223c2.261 0 4.11 1.85 4.11 4.11v189.046c0 2.26-1.85 4.11-4.11 4.11-2.26 0-4.109-1.85-4.109-4.11V153.333c0-2.26 1.85-4.109 4.109-4.11z"/><path fill="#A7A9AC" d="M379.256 360.463h.048c-.03.477-.048.955-.048 1.438 0 12.37 10.028 22.398 22.398 22.398 12.371 0 22.397-10.028 22.397-22.398 0-.484-.018-.962-.047-1.438h.047v-39.247h-44.796v39.247z"/><path fill="#7B7E7F" d="M401.654 384.3c12.371 0 22.397-10.028 22.397-22.398 0-.484-.018-.962-.047-1.438h.047v-39.247h-22.397V384.3z"/><path fill="#BCBEC0" d="M405.765 305.802v36.577c0 2.26-1.85 4.11-4.11 4.11-2.26 0-4.109-1.85-4.109-4.11v-36.577h8.219z"/><path fill="#6E9E34" d="M147.179 144.887h28.646c2.009 8.422 7.061 39.693 7.061 48.993 0 3.958-3.238 7.197-7.196 7.197h-28.51c-3.958 0-7.196-3.238-7.196-7.196 0-1.485.114-3.393.312-5.591l-16.686-38.842 3.306-1.743 15.46 24.398c1.643-10.804 3.721-22.101 4.803-27.216z"/><path fill="#66A53C" d="M177.519 153.352c1.104 6.016 2.387 13.757 3.423 21.018 4.994-.879 8.789-5.239 8.789-10.485 0-5.881-4.766-10.647-10.647-10.647-.532-.001-1.055.039-1.565.114zm1.564-2.31c7.093 0 12.843 5.751 12.843 12.843 0 6.355-4.618 11.631-10.68 12.66 1 7.289 1.697 13.848 1.635 17.335-.07 3.957-3.238 7.197-7.197 7.197h-13.977v-56.189h14.117c.348 1.499.793 3.679 1.291 6.305.642-.1 1.3-.151 1.968-.151z"/><path fill="#6E9E34" d="M131.916 145.019c1.932 3.846.379 8.53-3.467 10.461-3.845 1.932-8.529.379-10.46-3.466l13.927-6.995z"/><path fill="#AFE1F4" d="M161.708 176.688c.692-1.384 1.383-2.076 2.768-2.076 1.528 0 2.767 1.241 2.767 2.768 0 2.768-2.767 5.537-5.535 8.303-2.768-2.767-5.536-5.535-5.536-8.303 0-1.528 1.24-2.768 2.768-2.768 1.383-.001 2.075.692 2.768 2.076z"/><path fill="#93D8F0" d="M161.708 185.683c2.768-2.767 5.535-5.535 5.535-8.303 0-1.528-1.239-2.768-2.767-2.768-1.385 0-2.076.692-2.768 2.076v8.995z"/><path fill="#528931" d="M146.769 144.887h29.878c.543 0 .988.445.988.988 0 .543-.445.988-.989.988h-29.877c-.543 0-.987-.445-.987-.988-.001-.543.444-.988.987-.988z"/><path fill="#532318" d="M423.4 233.01h17.625c1.683 0 3.057 1.376 3.057 3.058s-1.374 3.057-3.057 3.057H423.4c-1.682 0-3.057-1.375-3.057-3.057.001-1.683 1.376-3.058 3.057-3.058z"/><path fill="#532318" d="M448.218 233.01h71.215c1.682 0 3.058 1.376 3.058 3.058s-1.376 3.057-3.058 3.057h-71.215c-1.681 0-3.056-1.375-3.056-3.057 0-1.683 1.375-3.058 3.056-3.058z"/><path fill="#6E9E34" d="M469.979 108.744h-55.39l5.755 127.323 101.562-1.854c4.957-9.502 3.683-30.565-15.556-33.485l-36.371-5.517v-86.467z"/><path fill="#66A53C" d="M473.396 108.743h-61.865v14.658l.225 1.752c.783 3.017 3.536 5.261 6.79 5.261h47.835c3.934 0 7.014-3.216 7.014-7.013l.001-7.645v-7.013z"/><path fill="#FFE319" d="M460.902 143.574c2.249 0 4.083-1.833 4.083-4.082 0-2.249-1.834-4.083-4.083-4.083-2.248 0-4.082 1.834-4.082 4.083s1.834 4.082 4.082 4.082z"/><path fill="#FFE319" d="M442.775 143.574c2.249 0 4.083-1.833 4.083-4.082 0-2.249-1.834-4.083-4.083-4.083-2.248 0-4.083 1.834-4.083 4.083.001 2.249 1.835 4.082 4.083 4.082z"/><path fill="#FFE319" d="M424.648 143.574c2.249 0 4.082-1.833 4.082-4.082 0-2.249-1.833-4.083-4.082-4.083s-4.083 1.834-4.083 4.083 1.834 4.082 4.083 4.082z"/><path fill="#FFE319" d="M460.902 161.504c2.249 0 4.083-1.833 4.083-4.082 0-2.25-1.834-4.083-4.083-4.083-2.248 0-4.082 1.832-4.082 4.083 0 2.248 1.834 4.082 4.082 4.082z"/><path fill="#FFE319" d="M442.775 161.504c2.249 0 4.083-1.833 4.083-4.082 0-2.25-1.834-4.083-4.083-4.083-2.248 0-4.083 1.832-4.083 4.083.001 2.248 1.835 4.082 4.083 4.082z"/><path fill="#FFE319" d="M424.648 161.504c2.249 0 4.082-1.833 4.082-4.082 0-2.25-1.833-4.083-4.082-4.083s-4.083 1.832-4.083 4.083c0 2.248 1.834 4.082 4.083 4.082z"/><path fill="#FFE319" d="M460.902 179.434c2.249 0 4.083-1.833 4.083-4.082 0-2.249-1.834-4.083-4.083-4.083-2.248 0-4.082 1.834-4.082 4.083s1.834 4.082 4.082 4.082z"/><path fill="#FFE319" d="M442.775 179.434c2.249 0 4.083-1.833 4.083-4.082 0-2.249-1.834-4.083-4.083-4.083-2.248 0-4.083 1.834-4.083 4.083.001 2.248 1.835 4.082 4.083 4.082z"/><path fill="#FFE319" d="M424.648 179.434c2.249 0 4.082-1.833 4.082-4.082 0-2.249-1.833-4.083-4.082-4.083s-4.083 1.834-4.083 4.083 1.834 4.082 4.083 4.082z"/><path fill="#FFE319" d="M460.902 197.364c2.249 0 4.083-1.835 4.083-4.083 0-2.251-1.834-4.083-4.083-4.083-2.248 0-4.082 1.832-4.082 4.083 0 2.248 1.834 4.083 4.082 4.083z"/><path fill="#FFE319" d="M442.775 197.364c2.249 0 4.083-1.835 4.083-4.083 0-2.251-1.834-4.083-4.083-4.083-2.248 0-4.083 1.832-4.083 4.083.001 2.248 1.835 4.083 4.083 4.083z"/><path fill="#FFE319" d="M424.648 197.364c2.249 0 4.082-1.835 4.082-4.083 0-2.251-1.833-4.083-4.082-4.083s-4.083 1.832-4.083 4.083c0 2.248 1.834 4.083 4.083 4.083z"/><path fill="#FFE319" d="M460.902 215.293c2.249 0 4.083-1.833 4.083-4.083 0-2.249-1.834-4.083-4.083-4.083-2.248 0-4.082 1.834-4.082 4.083 0 2.25 1.834 4.083 4.082 4.083z"/><path fill="#FFE319" d="M442.775 215.293c2.249 0 4.083-1.833 4.083-4.083 0-2.249-1.834-4.083-4.083-4.083-2.248 0-4.083 1.834-4.083 4.083.001 2.25 1.835 4.083 4.083 4.083z"/><path fill="#FFE319" d="M424.648 215.293c2.249 0 4.082-1.833 4.082-4.083 0-2.249-1.833-4.083-4.082-4.083s-4.083 1.834-4.083 4.083c0 2.25 1.834 4.083 4.083 4.083z"/><path fill="#FFE319" d="M513.81 213.044c2.248 0 4.082-1.833 4.082-4.082s-1.834-4.083-4.082-4.083-4.083 1.834-4.083 4.083c.001 2.249 1.834 4.083 4.083 4.082z"/><path fill="#FFE319" d="M496.672 212.236c2.249 0 4.082-1.834 4.082-4.083s-1.834-4.083-4.082-4.083c-2.249 0-4.083 1.834-4.083 4.083s1.834 4.083 4.083 4.083z"/><path fill="#FFE319" d="M478.544 212.236c2.249 0 4.083-1.834 4.083-4.083s-1.834-4.083-4.083-4.083c-2.248 0-4.082 1.834-4.082 4.083s1.833 4.083 4.082 4.083z"/><circle fill="#FFE319" cx="460.905" cy="225.983" r="4.082"/><circle fill="#FFE319" cx="442.783" cy="226.444" r="4.082"/><circle fill="#FFE319" cx="424.662" cy="226.905" r="4.082"/><circle fill="#FFE319" cx="514.784" cy="224.615" r="4.083"/><circle fill="#FFE319" cx="496.662" cy="225.075" r="4.082"/><circle fill="#FFE319" cx="478.542" cy="225.536" r="4.082"/><path fill="#7B7E7F" d="M612.197 186.112v35.967c0 3.957-3.237 7.194-7.193 7.194h-21.58c-3.957 0-7.193-3.236-7.193-7.194v-35.967c0-2.159.655-4.467 2.208-6.02l10.817-10.817c2.727-2.728 7.188-2.728 9.916 0l10.816 10.817c1.554 1.554 2.209 3.861 2.209 6.02z"/><path fill="#A7A9AC" d="M594.213 194.879c1.979 0 3.597 1.619 3.597 3.597l.001 40.164c0 1.977-1.618 3.596-3.597 3.596h-.001c-1.978 0-3.596-1.618-3.596-3.596v-40.164c0-1.978 1.618-3.597 3.596-3.597z"/><path fill="#F04933" d="M594.214 235.042c3.957 0 7.194 3.237 7.194 7.194v32.968c0 3.957-3.237 7.194-7.194 7.194s-7.194-3.237-7.194-7.194v-32.968c0-3.956 3.237-7.193 7.194-7.194z"/><path fill="#7B7E7F" d="M97.705 465.989h5.214v-38.488c0-1.899 1.555-3.454 3.456-3.454s3.456 1.555 3.456 3.454v38.488h5.466c.332 0 .658.021.98.06v-38.548c0-1.899 1.554-3.454 3.455-3.454 1.9 0 3.455 1.555 3.455 3.454v44.957c.103.51.157 1.038.157 1.578 0 4.426-3.622 8.046-8.047 8.046H97.705c-4.1 0-7.508-3.107-7.989-7.082-.1-.322-.153-.664-.153-1.019v-46.48c0-1.899 1.554-3.454 3.455-3.454 1.9 0 3.456 1.555 3.456 3.454v38.583c.401-.063.812-.095 1.231-.095z"/><path fill="#A7A9AC" d="M106.453 451.571c.695 0 1.262.567 1.262 1.262v41.829c0 .693-.567 1.262-1.262 1.262-.694 0-1.262-.567-1.262-1.262v-41.829c0-.694.568-1.262 1.262-1.262z"/><path fill="#CF8C46" d="M106.453 489.187c3.706 0 6.738 3.032 6.738 6.738v30.877c0 3.706-3.033 6.737-6.738 6.737-3.706 0-6.738-3.031-6.738-6.737v-30.877c0-3.706 3.032-6.738 6.738-6.738z"/><path fill="#F04933" d="M55.421 298.084h116.846l-18.656 117.828H74.078z"/><path fill="#C93B23" d="M55.421 298.084h57.995v117.828H74.078z"/><path fill="#414042" d="M179.201 302.009c-.065 36.278-29.492 65.667-65.786 65.667-36.292 0-65.72-29.389-65.785-65.667h3.191c.065 34.516 28.064 62.475 62.594 62.475 34.531 0 62.529-27.959 62.594-62.475h3.192z"/><path fill="#414042" d="M50.761 298.636h3.805c1.789 0 3.252 1.463 3.252 3.252 0 1.789-1.464 3.252-3.252 3.252h-3.805c-1.79 0-3.253-1.464-3.253-3.252 0-1.788 1.463-3.252 3.253-3.252z"/><path fill="#414042" d="M172.146 298.636h3.805c1.79 0 3.253 1.463 3.253 3.252 0 1.789-1.463 3.252-3.253 3.252h-3.805c-1.789 0-3.252-1.464-3.252-3.252 0-1.788 1.463-3.252 3.252-3.252z"/><path fill="#CB361F" d="M58.735 295.384h109.728c3.578 0 6.505 2.927 6.505 6.505s-2.927 6.504-6.505 6.504H58.735c-3.578 0-6.505-2.927-6.505-6.504 0-3.578 2.928-6.505 6.505-6.505z"/><path fill="#CB361F" d="M73.158 402.901h80.883c3.578 0 6.505 2.927 6.505 6.505s-2.927 6.506-6.505 6.506H73.158c-3.578 0-6.505-2.928-6.505-6.506 0-3.578 2.927-6.505 6.505-6.505z"/><g><path fill="#7B7E7F" d="M394.824 465.265l2.481-.728c1.994-.586 4.104.567 4.69 2.562l2.128 7.253c.585 1.995-.567 4.105-2.562 4.69l-2.481.729c-1.994.585-4.104-.568-4.69-2.562l-2.128-7.254c-.585-1.994.567-4.105 2.562-4.69z"/><path fill="#00A1DD" d="M397.792 470.789c4.032-1.183 8.298 1.147 9.48 5.179l9.855 33.591c1.184 4.031-1.146 8.297-5.179 9.48-4.032 1.183-8.298-1.147-9.48-5.179l-9.855-33.591c-1.183-4.032 1.147-8.297 5.179-9.48z"/><path fill="#7B7E7F" d="M384.367 465.265l-2.481-.728c-1.994-.586-4.104.567-4.69 2.562l-2.128 7.253c-.586 1.995.567 4.105 2.562 4.69l2.481.729c1.994.585 4.104-.568 4.69-2.562l2.128-7.254c.586-1.994-.567-4.105-2.562-4.69z"/><path fill="#00A1DD" d="M381.399 470.788c-4.032-1.183-8.298 1.148-9.48 5.18l-9.856 33.591c-1.183 4.031 1.148 8.297 5.18 9.48 4.031 1.183 8.297-1.147 9.48-5.179l9.855-33.591c1.184-4.032-1.147-8.297-5.179-9.481z"/><path fill="#7B7E7F" d="M375.751 406.185c13.694-2.363 26.711 6.822 29.074 20.517s-6.823 26.711-20.517 29.074l-8.557-49.591z"/><path fill="#939598" d="M393.735 406.161c13.662 2.54 22.679 15.675 20.139 29.337-2.54 13.663-15.675 22.68-29.337 20.14l9.198-49.477z"/><path fill="#A7A9AC" d="M385.771 454.856h7.146c4.009 0 7.289 3.28 7.289 7.289 0 4.01-3.28 7.29-7.289 7.29h-7.146c-4.01 0-7.289-3.28-7.289-7.29 0-4.008 3.28-7.289 7.289-7.289z"/><path fill="#7B7E7F" d="M389.345 464.949c1.544 0 2.804-1.26 2.804-2.804s-1.26-2.804-2.804-2.804-2.804 1.26-2.804 2.804 1.26 2.804 2.804 2.804z"/></g><g><path fill="#CF8C46" d="M268.221 524.037c2.369 0 4.307-1.538 4.307-3.418v-157.27c0-1.881-1.938-3.419-4.307-3.419-2.37 0-4.308 1.538-4.308 3.419V520.62c.001 1.879 1.938 3.417 4.308 3.417z"/><path fill="#BCBEC0" d="M272.528 387.068v-38.337c0-2.369-1.938-4.307-4.307-4.307-2.369 0-4.308 1.938-4.308 4.307v38.337h8.615z"/><path fill="#939598" d="M292.817 292.947v36.029c0 11.433-9.354 20.787-20.786 20.787h-7.622c-11.432 0-20.786-9.354-20.786-20.787v-36.029c0-1.124.912-2.036 2.035-2.036 1.124 0 2.035.912 2.036 2.036l.086 34.741c0 5.858 2.956 11.058 7.449 14.185 0-16.308-.043-32.623-.043-48.926 0-1.124.911-2.036 2.035-2.036s2.035.912 2.035 2.036c0 16.992-.043 33.995-.043 50.991 1.827.661 3.793 1.023 5.84 1.023h1.175c0-17.338-.043-34.682-.043-52.015 0-1.124.911-2.036 2.035-2.036s2.035.912 2.035 2.036c0 17.333-.043 34.677-.043 52.015h1.175c2.047 0 4.014-.362 5.841-1.023 0-16.996-.042-33.999-.042-50.991 0-1.124.911-2.036 2.035-2.036s2.035.912 2.035 2.036c0 16.303-.044 32.618-.044 48.926 4.493-3.127 7.449-8.327 7.449-14.185l.043-34.741c0-1.124.912-2.036 2.035-2.036 1.902 0 2.102 1.819 2.078 2.036z"/></g><g><path fill="#00A1DD" d="M292.859 548.378c2.573 0 4.678 2.105 4.678 4.678v31.742h3.898V543.7c0-2.572 2.104-4.678 4.678-4.678 2.573 0 4.678 2.105 4.678 4.678v41.098h3.898v-46.443c0-2.573 2.105-4.678 4.678-4.678s4.678 2.104 4.678 4.678v46.443h3.898v-41.432c0-2.573 2.104-4.678 4.678-4.678 2.573 0 4.678 2.104 4.678 4.678v43.85c.144.393.223.816.223 1.258v11.153l11.635-14.253c2.035-2.492 5.738-2.867 8.231-.832 2.492 2.034 2.867 5.738.832 8.23l-20.698 25.355v27.149c0 2.021-1.654 3.675-3.675 3.675h-41.99c-2.021 0-3.675-1.653-3.675-3.675V553.054c0-2.571 2.104-4.676 4.677-4.676z"/><path fill="#20C4F4" d="M288.905 633.583h47.782c1.562 0 2.84 1.277 2.84 2.839v18.379c0 1.562-1.278 2.84-2.84 2.84h-47.782c-1.562 0-2.84-1.278-2.84-2.84v-18.379c0-1.562 1.279-2.839 2.84-2.839z"/></g><g><path fill="#54382C" d="M416.677 534.883h2.291v33.609h-2.291z"/><path fill="#6E9E34" d="M402.017 536.257c.54 8.354 7.853 13.345 15.854 11.577-.94-8.234-7.571-13.615-15.854-11.577z"/><path fill="#6E9E34" d="M432.427 518.031c2.251 10.562-5.084 19.315-15.633 19.918-1.715-10.551 4.638-19.551 15.633-19.918z"/><path fill="#7B3F1F" d="M429.04 563.839c-.604.025-1.196.098-1.77.214.182-.667.28-1.369.28-2.095 0-4.372-3.546-7.916-7.918-7.916-4.313 0-7.82 3.449-7.915 7.74-.436-.107-.894-.164-1.362-.164-3.149 0-5.701 2.553-5.701 5.702 0 .157.006.314.019.469-.872-.303-1.81-.469-2.785-.469-.147 0-.293.005-.438.012.311-.404.495-.909.495-1.458 0-1.325-1.073-2.397-2.396-2.397-1.324 0-2.396 1.073-2.396 2.397 0 .945.548 1.765 1.344 2.153-2.066.905-3.703 2.611-4.515 4.727-.485-.13-.993-.2-1.519-.2-3.231 0-5.851 2.62-5.851 5.852s2.619 5.852 5.851 5.852c1.655 0 3.15-.688 4.214-1.795 1.438 1.125 3.246 1.795 5.212 1.795 1.708 0 3.297-.506 4.627-1.376 2.112 2.802 5.443 4.61 9.192 4.61 2.961 0 5.663-1.129 7.708-2.985 1.755 1.135 3.845 1.793 6.091 1.793 4.1 0 7.687-2.196 9.648-5.479.92 2.026 2.959 3.437 5.33 3.437 3.231 0 5.852-2.62 5.852-5.852s-2.62-5.852-5.852-5.852c-.386 0-.764.038-1.13.109-.188-1.135-1.175-1.999-2.363-1.999-.376-.001-.731.086-1.048.24-1.132-2.836-3.383-5.1-6.207-6.25.06-.209.092-.431.092-.659 0-1.324-1.073-2.396-2.397-2.396-1.272 0-2.312.989-2.392 2.24z"/><path fill="#FAA63D" d="M380.344 576.894h75.269l-12.018 75.901h-51.234z"/><path fill="#F7921E" d="M380.344 576.894h37.358v75.901h-25.341z"/><path fill="#F38E1E" d="M383.091 574.324h69.775c2.608 0 4.743 2.135 4.743 4.743v18.188c0 2.609-2.135 4.743-4.743 4.743h-69.775c-2.609 0-4.743-2.134-4.743-4.743v-18.188c0-2.608 2.133-4.743 4.743-4.743z"/></g><g><path fill="#7B7E7F" d="M560.633 134.22v30.071c0 3.375-2.762 6.136-6.138 6.136H521.357c-3.375 0-6.137-2.761-6.137-6.136V134.22c0-5.795 13.463-19.505 17.749-23.791 2.726-2.727 7.188-2.727 9.915 0 4.285 4.285 17.749 17.996 17.749 23.791z"/><path fill="#A7A9AC" d="M537.926 155.561c1.979 0 3.597.951 3.597 2.113v23.603c0 1.162-1.618 2.113-3.597 2.113-1.978 0-3.597-.951-3.597-2.113v-23.603c0-1.163 1.619-2.113 3.597-2.113z"/><path fill="#F7921E" d="M537.926 176.196c3.957 0 7.194 3.237 7.194 7.194v32.968c0 3.957-3.237 7.194-7.194 7.194-3.956 0-7.193-3.237-7.193-7.194V183.39c-.001-3.957 3.236-7.193 7.193-7.194z"/></g><g><path fill="#2A742E" d="M363.174 102.651h2.103v30.855h-2.103z"/><path fill="#6E9E34" d="M348.869 112.017c.496 7.67 7.209 12.252 14.555 10.629-.862-7.56-6.95-12.5-14.555-10.629z"/><path fill="#6E9E34" d="M383.679 102.309c-1.289 9.831-10.318 15.158-19.633 12.447 1.75-9.656 10.005-15.498 19.633-12.447z"/><path fill="#F16266" d="M361.087 98.719c.182.334.281.69.281 1.06 0 .369-.1.725-.281 1.059.365.107.687.289.948.551.261.26.441.581.549.947.334-.183.69-.281 1.06-.281.369 0 .725.099 1.059.281.106-.366.288-.688.55-.947.261-.262.582-.443.947-.551-.182-.335-.281-.69-.281-1.059 0-.37.1-.725.281-1.06-.365-.107-.687-.288-.947-.549-.261-.261-.443-.583-.55-.948-.334.183-.689.282-1.059.282-.369 0-.727-.099-1.06-.282-.106.365-.288.687-.549.948-.262.261-.583.442-.948.549zm-7.657 11.273c-1.355-1.356-.572-4.34 1.742-6.705-3.309-.034-5.973-1.592-5.973-3.508.001-1.918 2.664-3.474 5.973-3.509-2.314-2.364-3.098-5.349-1.743-6.704 1.356-1.356 4.34-.573 6.705 1.742.035-3.309 1.592-5.973 3.51-5.973 1.917 0 3.475 2.664 3.508 5.973 2.365-2.315 5.35-3.098 6.705-1.742 1.354 1.355.573 4.341-1.742 6.704 3.309.035 5.972 1.592 5.972 3.509 0 1.916-2.663 3.475-5.972 3.508 2.315 2.364 3.097 5.349 1.742 6.705-1.355 1.355-4.34.572-6.705-1.743-.033 3.309-1.591 5.973-3.508 5.973-1.918 0-3.475-2.664-3.51-5.973-2.363 2.314-5.348 3.098-6.704 1.743z"/><path fill="#FFE319" d="M363.644 104.95c2.848 0 5.171-2.324 5.171-5.171 0-2.849-2.323-5.171-5.171-5.171-2.849 0-5.172 2.323-5.172 5.171.001 2.847 2.323 5.171 5.172 5.171z"/><g><path fill="#2A742E" d="M330.403 69.618h2.103v63.888h-2.103z"/><path fill="#6E9E34" d="M348.807 108.529c-.577 8.916-8.38 14.24-16.917 12.354 1.002-8.787 8.077-14.529 16.917-12.354z"/><path fill="#6E9E34" d="M308.346 97.245c1.498 11.426 11.993 17.619 22.819 14.468-2.033-11.224-11.628-18.015-22.819-14.468z"/><path fill="#C0CE47" d="M348.592 66.405c-.576 8.916-8.379 14.241-16.917 12.354 1.003-8.786 8.078-14.529 16.917-12.354z"/><path fill="#C0CE47" d="M327.316 59.302c-2.632 4.764-.376 10.059 4.625 11.894 2.37-4.838.625-10.108-4.625-11.894z"/><path fill="#20C4F4" d="M334.605 93.073c-.211.388-.327.801-.327 1.23 0 .429.115.842.328 1.231-.426.125-.799.336-1.103.64-.303.303-.514.676-.638 1.102-.389-.212-.802-.328-1.232-.328-.429 0-.842.115-1.23.328-.124-.426-.334-.799-.638-1.102-.304-.304-.677-.515-1.102-.64.212-.389.328-.802.328-1.231 0-.43-.116-.842-.328-1.23.425-.125.798-.335 1.102-.639.302-.304.515-.677.638-1.103.389.213.802.329 1.23.329.43 0 .844-.115 1.232-.329.124.425.335.799.638 1.103.304.304.677.513 1.102.639zm8.901 13.102c1.575-1.576.665-5.045-2.026-7.793 3.846-.04 6.942-1.851 6.942-4.079 0-2.229-3.096-4.038-6.942-4.079 2.69-2.747 3.601-6.217 2.026-7.792-1.577-1.576-5.045-.666-7.793 2.025-.04-3.846-1.85-6.942-4.079-6.942-2.228 0-4.038 3.096-4.077 6.942-2.749-2.691-6.218-3.601-7.793-2.025-1.575 1.575-.666 5.046 2.025 7.792-3.846.041-6.941 1.85-6.941 4.079 0 2.228 3.096 4.039 6.941 4.079-2.691 2.748-3.6 6.217-2.025 7.793 1.575 1.575 5.045.666 7.793-2.025.039 3.846 1.85 6.943 4.077 6.943 2.229-.001 4.039-3.098 4.079-6.943 2.747 2.69 6.216 3.6 7.793 2.025z"/><path fill="#FFE319" d="M331.633 100.314c-3.31 0-6.01-2.701-6.01-6.011 0-3.311 2.7-6.01 6.01-6.01 3.312 0 6.011 2.7 6.011 6.01 0 3.311-2.699 6.011-6.011 6.011z"/></g><g><path fill="#2A742E" d="M287.591 102.651h2.103v30.855h-2.103z"/><path fill="#6E9E34" d="M273.287 112.017c.496 7.67 7.209 12.252 14.554 10.629-.862-7.56-6.95-12.5-14.554-10.629z"/><path fill="#6E9E34" d="M308.096 102.309c-1.289 9.831-10.318 15.158-19.633 12.447 1.75-9.656 10.005-15.498 19.633-12.447z"/><path fill="#F16266" d="M285.504 98.719c.182.334.281.69.281 1.06 0 .369-.099.725-.281 1.059.366.107.688.289.949.551.26.26.441.581.549.947.333-.183.69-.281 1.06-.281.369 0 .724.099 1.058.281.107-.366.288-.688.55-.947.261-.262.583-.443.948-.551-.182-.335-.282-.69-.282-1.059 0-.37.1-.725.282-1.06-.366-.107-.687-.288-.948-.549-.26-.261-.443-.583-.55-.948-.334.183-.689.282-1.058.282-.37 0-.726-.099-1.06-.282-.107.365-.289.687-.549.948-.262.261-.583.442-.949.549zm-7.657 11.273c-1.355-1.356-.572-4.34 1.743-6.705-3.309-.034-5.973-1.592-5.973-3.508 0-1.918 2.664-3.474 5.973-3.509-2.315-2.364-3.098-5.349-1.743-6.704 1.356-1.356 4.34-.573 6.705 1.742.034-3.309 1.592-5.973 3.509-5.973 1.917 0 3.474 2.664 3.507 5.973 2.365-2.315 5.35-3.098 6.706-1.742 1.354 1.355.573 4.341-1.742 6.704 3.309.035 5.972 1.592 5.972 3.509 0 1.916-2.663 3.475-5.972 3.508 2.315 2.364 3.097 5.349 1.742 6.705-1.355 1.355-4.34.572-6.706-1.743-.033 3.309-1.591 5.973-3.507 5.973-1.917 0-3.475-2.664-3.509-5.973-2.364 2.314-5.349 3.098-6.705 1.743z"/><path fill="#FFE319" d="M288.061 104.95c2.848 0 5.17-2.324 5.17-5.171 0-2.849-2.323-5.171-5.17-5.171-2.848 0-5.171 2.323-5.171 5.171 0 2.847 2.322 5.171 5.171 5.171z"/></g><g><path fill="#2A742E" d="M252.152 69.618h2.103v63.888h-2.103z"/><path fill="#6E9E34" d="M270.555 108.529c-.577 8.916-8.38 14.24-16.917 12.354 1.003-8.787 8.078-14.529 16.917-12.354z"/><path fill="#6E9E34" d="M230.095 97.245c1.497 11.426 11.993 17.619 22.819 14.468-2.034-11.224-11.628-18.015-22.819-14.468z"/><path fill="#C0CE47" d="M270.341 66.405c-.577 8.916-8.379 14.241-16.917 12.354 1.003-8.786 8.078-14.529 16.917-12.354z"/><path fill="#C0CE47" d="M249.064 59.302c-2.631 4.764-.375 10.059 4.625 11.894 2.371-4.838.625-10.108-4.625-11.894z"/><path fill="#20C4F4" d="M256.354 93.073c-.212.388-.328.801-.328 1.23 0 .429.115.842.328 1.231-.425.125-.799.336-1.103.64-.303.303-.514.676-.638 1.102-.388-.212-.802-.328-1.232-.328-.429 0-.841.115-1.23.328-.124-.426-.335-.799-.639-1.102-.304-.304-.677-.515-1.102-.64.212-.389.328-.802.328-1.231 0-.43-.116-.842-.328-1.23.425-.125.798-.335 1.102-.639.303-.304.515-.677.639-1.103.389.213.801.329 1.23.329.43 0 .844-.115 1.232-.329.125.425.335.799.638 1.103.305.304.678.513 1.103.639zm8.9 13.102c1.575-1.576.665-5.045-2.026-7.793 3.846-.04 6.942-1.851 6.942-4.079 0-2.229-3.097-4.038-6.942-4.079 2.69-2.747 3.601-6.217 2.026-7.792-1.576-1.576-5.045-.666-7.793 2.025-.04-3.846-1.85-6.942-4.079-6.942-2.228 0-4.038 3.096-4.077 6.942-2.749-2.691-6.218-3.601-7.793-2.025-1.575 1.575-.666 5.046 2.024 7.792-3.846.041-6.941 1.85-6.941 4.079 0 2.228 3.095 4.039 6.941 4.079-2.69 2.748-3.6 6.217-2.024 7.793 1.575 1.575 5.044.666 7.793-2.025.039 3.846 1.85 6.943 4.077 6.943 2.229-.001 4.039-3.098 4.079-6.943 2.748 2.69 6.217 3.6 7.793 2.025z"/><path fill="#FFE319" d="M253.382 100.314c-3.31 0-6.009-2.701-6.009-6.011 0-3.311 2.699-6.01 6.009-6.01 3.312 0 6.011 2.7 6.011 6.01 0 3.311-2.7 6.011-6.011 6.011z"/></g><g><path fill="#2A742E" d="M209.657 102.651h2.104v30.855h-2.104z"/><path fill="#6E9E34" d="M195.353 112.017c.496 7.67 7.209 12.252 14.555 10.629-.864-7.56-6.951-12.5-14.555-10.629z"/><path fill="#6E9E34" d="M230.163 102.309c-1.289 9.831-10.318 15.158-19.633 12.447 1.749-9.656 10.004-15.498 19.633-12.447z"/><path fill="#F59296" d="M207.571 98.719c.182.334.281.69.281 1.06 0 .369-.099.725-.281 1.059.366.107.687.289.948.551.26.26.441.581.549.947.334-.183.69-.281 1.06-.281.369 0 .725.099 1.059.281.107-.366.288-.688.55-.947.261-.262.583-.443.948-.551-.183-.335-.283-.69-.283-1.059 0-.37.1-.725.283-1.06-.366-.107-.688-.288-.948-.549-.261-.261-.443-.583-.55-.948-.334.183-.689.282-1.059.282s-.726-.099-1.06-.282c-.107.365-.289.687-.549.948-.262.261-.583.442-.948.549zm-7.657 11.273c-1.355-1.356-.573-4.34 1.742-6.705-3.309-.034-5.973-1.592-5.973-3.508 0-1.918 2.664-3.474 5.973-3.509-2.315-2.364-3.098-5.349-1.743-6.704 1.356-1.356 4.341-.573 6.705 1.742.035-3.309 1.591-5.973 3.509-5.973 1.917 0 3.474 2.664 3.508 5.973 2.365-2.315 5.35-3.098 6.705-1.742 1.355 1.355.573 4.341-1.742 6.704 3.309.035 5.973 1.592 5.973 3.509 0 1.916-2.664 3.475-5.973 3.508 2.315 2.364 3.097 5.349 1.742 6.705-1.355 1.355-4.34.572-6.705-1.743-.034 3.309-1.591 5.973-3.508 5.973-1.918 0-3.475-2.664-3.509-5.973-2.364 2.314-5.349 3.098-6.704 1.743z"/><path fill="#FFE319" d="M210.127 104.95c2.849 0 5.17-2.324 5.17-5.171 0-2.849-2.323-5.171-5.17-5.171-2.848 0-5.171 2.323-5.171 5.171 0 2.847 2.322 5.171 5.171 5.171z"/></g><path fill="#20C4F4" d="M193.343 123.896h190.831l-15.324 52.045H208.667z"/><path fill="#00A1DD" d="M193.343 123.896h95.054v52.045h-79.73z"/><path fill="#0096D0" d="M192.476 123.896h192.565c1.432 0 2.603 1.171 2.603 2.602v2.313c0 1.431-1.171 2.602-2.603 2.602H192.476c-1.431 0-2.603-1.171-2.603-2.602v-2.313c0-1.431 1.171-2.602 2.603-2.602z"/></g><g><path fill="#BE7A4C" d="M267.05 590.489l-12.395-3.587c-3.976-1.151-8.171 1.16-9.322 5.137-1.151 3.977 1.161 8.172 5.137 9.322l12.395 3.587c3.976 1.151 8.171-1.16 9.322-5.137 1.151-3.976-1.161-8.171-5.137-9.322z"/><path fill="#B15B19" d="M235.696 602c4.264 0 7.742-3.478 7.742-7.741s-3.478-7.742-7.742-7.742c-4.264 0-7.742 3.479-7.742 7.742s3.479 7.741 7.742 7.741z"/><path fill="#8D440D" d="M238.578 607.625l8.786-4.057c3.759-1.734 8.253-.079 9.989 3.68 1.735 3.758.08 8.253-3.679 9.987l-8.786 4.057c-3.759 1.735-8.253.08-9.989-3.679-1.735-3.759-.08-8.253 3.679-9.988z"/><path fill="#BE7A4C" d="M226.145 599.933l-12.889.604c-4.135.193-7.36 3.734-7.166 7.87.193 4.136 3.735 7.36 7.87 7.166l12.888-.603c4.135-.193 7.36-3.735 7.167-7.87-.194-4.136-3.736-7.361-7.87-7.167z"/><path fill="#782C05" d="M216.988 597.699c4.264 0 7.741-3.478 7.741-7.741 0-4.265-3.478-7.742-7.741-7.742-4.264 0-7.742 3.478-7.742 7.742 0 4.264 3.478 7.741 7.742 7.741z"/><path fill="#B15B19" d="M244.298 585.872c4.264 0 7.742-3.479 7.742-7.742s-3.478-7.741-7.742-7.741c-4.264 0-7.742 3.478-7.742 7.741s3.478 7.742 7.742 7.742z"/><path fill="#8D440D" d="M224.483 565.565l7.62 5.966c3.26 2.552 3.839 7.307 1.287 10.565-2.552 3.26-7.307 3.839-10.566 1.287l-7.62-5.965c-3.26-2.553-3.839-7.307-1.287-10.566 2.552-3.259 7.307-3.838 10.566-1.287z"/><path fill="#782C05" d="M270.642 572.581l-10.841.507c-3.479.163-6.191 3.142-6.028 6.62.163 3.479 3.142 6.19 6.62 6.027l10.841-.507c3.479-.163 6.19-3.142 6.028-6.619v-.001c-.163-3.478-3.142-6.19-6.62-6.027z"/><path fill="#BE7A4C" d="M248.724 553.483l-12.889.603c-4.135.193-7.36 3.735-7.167 7.87.193 4.136 3.735 7.36 7.87 7.167l12.889-.604c4.135-.193 7.36-3.734 7.167-7.87-.193-4.134-3.735-7.36-7.87-7.166z"/><path fill="#B15B19" d="M202.794 585.227c4.264 0 7.742-3.478 7.742-7.741 0-4.265-3.478-7.742-7.742-7.742-4.264 0-7.741 3.478-7.741 7.742 0 4.263 3.477 7.741 7.741 7.741z"/><path fill="#8D440D" d="M197.924 585.671l7.62 5.965c3.26 2.552 3.839 7.307 1.287 10.566-2.552 3.26-7.307 3.839-10.566 1.287l-7.62-5.966c-3.26-2.552-3.839-7.307-1.287-10.566 2.551-3.26 7.306-3.839 10.566-1.286z"/><path fill="#782C05" d="M215.491 550.128l-10.062 4.065c-3.229 1.304-4.803 5.012-3.499 8.241 1.305 3.229 5.013 4.803 8.241 3.498l10.062-4.065c3.229-1.305 4.803-5.013 3.498-8.241-1.304-3.229-5.012-4.803-8.24-3.498z"/><path fill="#B15B19" d="M226.985 631.782c4.264 0 7.742-3.478 7.742-7.742 0-4.264-3.478-7.741-7.742-7.741s-7.742 3.478-7.742 7.741c.001 4.265 3.479 7.742 7.742 7.742z"/><path fill="#782C05" d="M197.739 623.396c4.264 0 7.741-3.479 7.741-7.742s-3.478-7.741-7.741-7.741c-4.264 0-7.742 3.478-7.742 7.741s3.478 7.742 7.742 7.742z"/><path fill="#D07239" d="M184.836 580.815c4.264 0 7.742-3.478 7.742-7.741s-3.478-7.741-7.742-7.741-7.742 3.478-7.742 7.741 3.479 7.741 7.742 7.741z"/><path fill="#8D440D" d="M212.983 617.944l3.34 2.615c1.429 1.118 1.683 3.202.564 4.631v.001c-1.119 1.429-3.203 1.682-4.631.563l-3.34-2.615c-1.429-1.118-1.683-3.202-.564-4.631 1.119-1.428 3.203-1.682 4.631-.564z"/><path fill="#8D440D" d="M185.151 598.833l3.872 1.732c1.656.741 2.405 2.703 1.664 4.359-.741 1.656-2.703 2.405-4.359 1.664l-3.872-1.733c-1.656-.741-2.405-2.703-1.664-4.358v-.001c.741-1.656 2.703-2.404 4.359-1.663z"/><path fill="#8D440D" d="M197.292 561.611l-3.872 1.732c-1.656.741-2.404 2.703-1.663 4.359.741 1.656 2.703 2.405 4.359 1.664l3.872-1.733c1.656-.741 2.405-2.703 1.664-4.359-.742-1.656-2.704-2.404-4.36-1.663z"/><path fill="#8D440D" d="M179.422 584.641l-1.345 4.023c-.575 1.721.362 3.599 2.083 4.175 1.721.575 3.6-.362 4.175-2.083l1.345-4.023c.575-1.721-.362-3.6-2.083-4.175-1.721-.576-3.599.362-4.175 2.083z"/><path fill="#8D440D" d="M258.193 563.59l-1.345 4.023c-.575 1.722.362 3.6 2.083 4.175 1.721.575 3.6-.361 4.175-2.083l1.345-4.023c.576-1.721-.362-3.599-2.083-4.174v-.001c-1.721-.575-3.599.362-4.175 2.083z"/></g><g><path fill="#3E6B24" d="M307.095 399.188h18.515v22.041h-18.515z"/><path fill="#528931" d="M299.601 410.209h33.502c3.152 0 5.73 2.578 5.73 5.73v8.816c0 3.151-2.578 5.73-5.73 5.73h-33.502c-3.152 0-5.73-2.579-5.73-5.73v-8.816c0-3.152 2.578-5.73 5.73-5.73z"/><path fill="#6BAD50" d="M294.091 415.939h44.522c7.031 0 12.784 5.752 12.784 12.783V513.8c0 7.031-5.752 12.783-12.784 12.783h-44.522c-7.031 0-12.783-5.752-12.783-12.783v-85.078c0-7.031 5.752-12.783 12.783-12.783z"/><path fill="#984C11" d="M305.221 386.404h22.262c1.455 0 2.644 1.19 2.644 2.645v16.312c0 1.454-1.189 2.645-2.644 2.645h-22.262c-1.455 0-2.644-1.19-2.644-2.645v-16.312c0-1.454 1.19-2.645 2.644-2.645z"/><path fill="#66A53C" d="M294.091 415.939h21.746v110.645h-21.746c-7.031 0-12.784-5.753-12.784-12.784v-85.077c.001-7.032 5.754-12.784 12.784-12.784z"/><path fill="#FFF" d="M315.691 496.607c13.354 0 24.245-10.892 24.245-24.245s-10.891-24.244-24.245-24.244c-13.354 0-24.245 10.891-24.245 24.244s10.891 24.245 24.245 24.245z"/><path fill="#54382C" d="M314.292 460.872h1.173v17.212h-1.173z"/><path fill="#6E9E34" d="M306.785 461.576c.277 4.278 4.022 6.834 8.119 5.929-.482-4.217-3.877-6.973-8.119-5.929z"/><path fill="#6E9E34" d="M322.358 452.242c1.153 5.409-2.603 9.893-8.005 10.2-.878-5.403 2.375-10.011 8.005-10.2z"/><path fill="#7B3F1F" d="M320.624 475.701c-.309.013-.612.05-.906.109.094-.342.144-.701.144-1.072 0-2.239-1.816-4.055-4.055-4.055-2.209 0-4.005 1.767-4.053 3.964-.223-.055-.458-.084-.698-.084-1.613 0-2.92 1.308-2.92 2.921 0 .08.003.161.01.239-.447-.155-.926-.239-1.426-.239-.076 0-.15.002-.225.006.159-.207.253-.466.253-.747 0-.678-.549-1.228-1.227-1.228s-1.228.55-1.228 1.228c0 .484.281.903.688 1.103-1.059.464-1.896 1.338-2.312 2.421-.249-.066-.509-.103-.778-.103-1.654 0-2.997 1.342-2.997 2.997 0 1.654 1.342 2.996 2.997 2.996.848 0 1.614-.353 2.158-.918.737.574 1.663.918 2.669.918.875 0 1.688-.259 2.369-.705 1.082 1.436 2.788 2.361 4.708 2.361 1.517 0 2.9-.578 3.947-1.528.899.581 1.969.918 3.12.918 2.099 0 3.936-1.125 4.941-2.806.471 1.037 1.516 1.76 2.729 1.76 1.655 0 2.997-1.342 2.997-2.996 0-1.655-1.341-2.997-2.997-2.997-.198 0-.391.02-.578.057-.098-.582-.603-1.024-1.211-1.024-.192 0-.375.044-.536.123-.58-1.452-1.732-2.611-3.179-3.201.031-.106.047-.22.047-.337 0-.678-.55-1.228-1.228-1.228-.649 0-1.182.507-1.223 1.147z"/><path fill="#B15B19" d="M316.472 386.404H327.6c1.39 0 2.528 1.19 2.528 2.646v16.311c0 1.454-1.138 2.645-2.528 2.645h-11.128v-21.602z"/></g><g><path fill="#6D6E71" d="M177.36 400.154l12.514 4.673c1.452.542 2.196 2.174 1.654 3.626l-1.387 3.715c-.542 1.452-2.174 2.196-3.625 1.653l-12.514-4.673c-1.452-.542-2.196-2.173-1.654-3.625l1.387-3.715c.542-1.452 2.173-2.196 3.625-1.654z"/><path fill="#6D6E71" d="M201.38 414.937c.665.909.466 2.196-.442 2.861l-19.889 14.564c-.908.665-2.195.466-2.86-.442v-.001c-.665-.908-.466-2.194.442-2.86l19.889-14.563c.908-.666 2.195-.468 2.86.441z"/><path fill="#808285" d="M212.608594 448.448296l-17.532.0911664-.1682304-32.352 17.532-.0911664z"/><path fill="#A7A9AC" d="M184.7 399.888l33.924 12.668c1.427.532 2.217 2.045 1.896 3.493l.027.01c2.484.927 3.746 3.692 2.818 6.177-.928 2.483-3.693 3.744-6.176 2.817-.583 1.56-2.334 2.359-3.894 1.776l-33.924-12.668c-1.559-.582-2.359-2.334-1.776-3.894l3.213-8.604c.581-1.559 2.334-2.357 3.892-1.775z"/><path fill="#0096D0" d="M192.704 443.16h23.565c3.51 0 6.382 2.872 6.382 6.382v.001c0 3.51-2.872 6.382-6.382 6.382h-23.565c-3.511 0-6.382-2.872-6.382-6.382v-.001c-.001-3.51 2.871-6.382 6.382-6.382z"/><path fill="#0096D0" d="M192.704 527.235h23.565c3.51 0 6.382 2.871 6.382 6.382 0 3.511-2.872 6.383-6.382 6.383h-23.565c-3.511 0-6.382-2.872-6.382-6.383-.001-3.511 2.871-6.382 6.382-6.382z"/><path fill="#20C4F4" d="M204.487 536.931c24.877 0 45.167-20.29 45.167-45.167s-20.29-45.167-45.167-45.167c-24.877 0-45.167 20.29-45.167 45.167s20.289 45.167 45.167 45.167z"/><path fill="#00A1DD" d="M203.75 536.922c-24.605-.395-44.431-20.459-44.431-45.158 0-24.698 19.826-44.764 44.431-45.158v90.316z"/></g><g><path fill="#F47920" d="M329.473 219.865h17.532v32.352h-17.532z"/><path fill="#F7921E" d="M329.054 247.208h18.369c13.201 0 24.001 10.8 24.001 24.001v56.772c0 13.201-10.8 24.001-24.001 24.001h-18.369c-13.201 0-24.001-10.8-24.001-24.001v-56.772c0-13.201 10.8-24.001 24.001-24.001z"/><path fill="#FAA63D" d="M337.649 247.208h9.774c13.2 0 24.001 10.8 24.001 24.001v56.772c0 13.201-10.801 24.001-24.001 24.001h-9.774V247.208z"/><path fill="#FFF" d="M338.239 324.086c12.915 0 23.448-10.533 23.448-23.449 0-12.915-10.533-23.449-23.448-23.449-12.916 0-23.449 10.534-23.449 23.449 0 12.916 10.534 23.449 23.449 23.449z"/><path d="M338.037 284.812c.517.054.895.521.84 1.038l-.583 5.549c-.054.517-.521.895-1.038.84-.517-.054-.895-.521-.84-1.038l.583-5.549c.054-.516.521-.894 1.038-.84z"/><path d="M353.019 297.788c-.127-.504-.643-.811-1.147-.684l-5.409 1.369c-.504.128-.811.644-.684 1.147s.643.811 1.147.683l5.409-1.369c.503-.127.811-.642.684-1.146z"/><path d="M320.058 305.572c.127.503.644.811 1.147.683l5.409-1.369c.504-.127.811-.644.684-1.147-.127-.504-.643-.811-1.147-.684l-5.409 1.369c-.504.128-.811.644-.684 1.148z"/><path d="M335.04 318.546c-.517-.054-.895-.521-.84-1.037l.583-5.549c.055-.517.521-.895 1.038-.841.517.055.895.521.84 1.038l-.583 5.549c-.055.517-.521.895-1.038.84z"/><path d="M325.084 292.777c.337-.396.936-.444 1.331-.107l4.249 3.617c.396.337.444.936.107 1.331-.337.396-.935.444-1.331.107l-4.249-3.617c-.395-.337-.443-.936-.107-1.331z"/><path d="M341.341 306.855c.336-.396.935-.444 1.331-.107l4.249 3.617c.396.337.444.936.107 1.331-.337.396-.936.443-1.331.107l-4.249-3.618c-.396-.335-.445-.934-.107-1.33z"/><ellipse transform="rotate(-49.103 336.0863583 302.2415922)" cx="336.056" cy="302.237" rx="13.138" ry="9.801"/><circle cx="345.783" cy="291.005" r="5.005"/><path fill="#414042" d="M344.656 292.306c4.092 3.544 3.559 10.863-1.191 16.348-4.75 5.484-11.918 7.058-16.01 3.515-.053-.045-.104-.093-.155-.139l17.197-19.856c.054.042.107.086.159.132z"/><g><path d="M348.898 284.586c.106.045.156.167.111.273l-.878 2.063c-.045.106-.167.155-.273.11-.105-.044-.155-.167-.11-.273l.877-2.063c.045-.106.168-.155.273-.11z"/><circle cx="348.975" cy="284.406" r=".443"/></g><g><path d="M351.648 286.967c-.06-.099-.188-.13-.287-.07l-1.917 1.164c-.098.06-.129.188-.07.286.06.098.188.129.286.07l1.917-1.164c.099-.06.131-.189.071-.286z"/><circle cx="351.815" cy="286.865" r=".443"/></g><path fill="#CB361F" d="M338.238 274.064c14.677 0 26.574 11.897 26.574 26.574 0 14.677-11.897 26.574-26.574 26.574-14.676 0-26.574-11.897-26.574-26.574.001-14.677 11.898-26.574 26.574-26.574zm-16.261 10.367l34.797 29.753c2.78-3.797 4.423-8.48 4.423-13.547 0-12.679-10.279-22.958-22.959-22.958-6.353.001-12.104 2.581-16.261 6.752zm32.523 32.413l-34.797-29.753c-2.78 3.797-4.423 8.479-4.423 13.546 0 12.68 10.279 22.958 22.958 22.958 6.354.001 12.105-2.58 16.262-6.751z"/><path fill="#CB361F" d="M306.405 209.116h13.358c1.549 0 2.817 1.268 2.817 2.817v3.966c0 1.55-1.268 2.817-2.817 2.817h-13.358c-1.55 0-2.817-1.268-2.817-2.817v-3.966c0-1.549 1.267-2.817 2.817-2.817z"/><path fill="#CB361F" d="M334.079 214.562c.941.618 1.205 1.894.587 2.834l-13.537 20.602c-.619.94-1.894 1.205-2.834.586-.941-.618-1.205-1.894-.586-2.834l13.538-20.602c.616-.941 1.891-1.205 2.832-.586z"/><path fill="#F47920" d="M313.188 206.298H349.4c1.523 0 2.792 1.141 2.997 2.609h.029c2.651 0 4.801 2.149 4.801 4.801 0 2.651-2.149 4.8-4.801 4.8 0 1.665-1.362 3.026-3.026 3.026h-36.212c-1.665 0-3.026-1.362-3.026-3.026v-9.184c0-1.664 1.362-3.026 3.026-3.026z"/><path fill="#CB361F" d="M318.771 243.66h38.936c1.002 0 1.821.819 1.821 1.821v2.802c0 1.001-.819 1.82-1.821 1.82h-38.936c-1.001 0-1.821-.819-1.821-1.82v-2.802c0-1.002.819-1.821 1.821-1.821z"/></g><g><ellipse fill="#66A53C" cx="479.987" cy="293.676" rx="2.876" ry="25.19"/><g fill="#6BAD50"><path d="M473.738 282.839c1.136-.062 3.506 7.952 5.295 17.901 1.788 9.948 2.317 18.063 1.182 18.126-1.136.062-3.506-7.953-5.295-17.902-1.788-9.948-2.317-18.064-1.182-18.125z"/><path d="M486.195 282.813c1.137.057.719 8.174-.933 18.13s-3.911 17.98-5.048 17.923c-1.137-.058-.72-8.175.933-18.13 1.652-9.956 3.912-17.981 5.048-17.923z"/></g><path fill="#FAA63D" d="M479.987 342.609c9.659 0 17.538-7.878 17.538-17.537s-7.879-17.538-17.538-17.538-17.537 7.878-17.537 17.538 7.878 17.537 17.537 17.537z"/><path fill="#ED9F3C" d="M479.737 342.607c-9.569-.134-17.287-7.933-17.287-17.535 0-9.601 7.718-17.4 17.287-17.534v35.069z"/><ellipse fill="#66A53C" cx="526.021" cy="293.676" rx="2.876" ry="25.19"/><g fill="#6BAD50"><path d="M519.771 282.839c1.136-.062 3.506 7.952 5.294 17.901 1.788 9.948 2.317 18.063 1.182 18.126-1.136.062-3.506-7.953-5.294-17.902-1.788-9.948-2.317-18.064-1.182-18.125z"/><path d="M532.228 282.813c1.137.057.72 8.174-.933 18.13-1.651 9.956-3.911 17.98-5.048 17.923-1.137-.058-.719-8.175.933-18.13s3.911-17.981 5.048-17.923z"/></g><path fill="#FAA63D" d="M526.021 342.609c9.659 0 17.537-7.878 17.537-17.537s-7.878-17.538-17.537-17.538-17.537 7.878-17.537 17.538 7.877 17.537 17.537 17.537z"/><path fill="#ED9F3C" d="M525.77 342.607c-9.569-.134-17.286-7.933-17.286-17.535 0-9.601 7.717-17.4 17.286-17.534v35.069z"/><ellipse fill="#66A53C" cx="572.053" cy="293.676" rx="2.876" ry="25.19"/><g fill="#6BAD50"><path d="M565.804 282.839c1.136-.062 3.506 7.952 5.294 17.901 1.789 9.948 2.318 18.063 1.183 18.126-1.136.062-3.507-7.953-5.295-17.902-1.789-9.948-2.318-18.064-1.182-18.125z"/><path d="M578.261 282.813c1.137.057.719 8.174-.933 18.13-1.652 9.956-3.912 17.98-5.048 17.923-1.137-.058-.72-8.175.933-18.13 1.65-9.956 3.911-17.981 5.048-17.923z"/></g><path fill="#FAA63D" d="M572.053 342.609c9.659 0 17.538-7.878 17.538-17.537s-7.879-17.538-17.538-17.538c-9.658 0-17.537 7.878-17.537 17.538s7.879 17.537 17.537 17.537z"/><path fill="#ED9F3C" d="M571.803 342.607c-9.57-.134-17.287-7.933-17.287-17.535 0-9.601 7.717-17.4 17.287-17.534v35.069z"/><ellipse fill="#66A53C" cx="618.086" cy="293.676" rx="2.875" ry="25.19"/><g fill="#6BAD50"><path d="M611.836 282.839c1.137-.062 3.507 7.952 5.295 17.901 1.788 9.948 2.317 18.063 1.182 18.126-1.136.062-3.506-7.953-5.294-17.902-1.789-9.948-2.318-18.064-1.183-18.125z"/><path d="M624.293 282.813c1.137.057.719 8.174-.933 18.13s-3.911 17.98-5.048 17.923c-1.137-.058-.719-8.175.933-18.13s3.911-17.981 5.048-17.923z"/></g><path fill="#FAA63D" d="M618.086 342.609c9.659 0 17.537-7.878 17.537-17.537s-7.878-17.538-17.537-17.538-17.537 7.878-17.537 17.538 7.878 17.537 17.537 17.537z"/><path fill="#ED9F3C" d="M617.835 342.607c-9.569-.134-17.287-7.933-17.287-17.535 0-9.601 7.718-17.4 17.287-17.534v35.069z"/><path fill="#984C11" d="M450.175 325.785h197.723l-15.877 53.925H466.053z"/><path fill="#8D440D" d="M450.175 325.785h98.487v53.925h-82.609z"/><path fill="#B15B19" d="M449.276 325.785h199.521c1.482 0 2.696 1.213 2.696 2.696v2.397c0 1.483-1.214 2.696-2.696 2.696H449.276c-1.483 0-2.696-1.213-2.696-2.696v-2.397c0-1.483 1.213-2.696 2.696-2.696z"/></g><g><path fill="#2A742E" d="M138.017 514.211h2.103v63.888h-2.103z"/><path fill="#6E9E34" d="M156.42 553.121c-.576 8.916-8.379 14.24-16.917 12.354 1.003-8.787 8.078-14.529 16.917-12.354z"/><path fill="#6E9E34" d="M115.96 541.837c1.498 11.427 11.993 17.619 22.819 14.468-2.033-11.224-11.628-18.014-22.819-14.468z"/><path fill="#C0CE47" d="M156.207 510.997c-.576 8.916-8.379 14.241-16.917 12.354 1.002-8.787 8.078-14.529 16.917-12.354z"/><path fill="#C0CE47" d="M134.93 503.895c-2.632 4.765-.376 10.059 4.625 11.894 2.37-4.839.625-10.108-4.625-11.894z"/><path fill="#20C4F4" d="M142.219 537.665c-.212.388-.327.801-.327 1.23 0 .429.115.842.327 1.23-.425.125-.799.336-1.103.64-.303.303-.513.677-.638 1.102-.388-.212-.802-.327-1.232-.327-.429 0-.842.115-1.23.327-.124-.425-.334-.799-.639-1.102-.304-.304-.677-.515-1.102-.64.212-.389.328-.802.328-1.23 0-.43-.116-.843-.328-1.23.425-.125.798-.335 1.102-.639.303-.305.515-.678.639-1.103.388.213.802.328 1.23.328.43 0 .844-.115 1.232-.328.125.425.335.799.638 1.103.305.304.678.514 1.103.639zm8.901 13.102c1.575-1.576.665-5.045-2.025-7.793 3.846-.04 6.942-1.851 6.942-4.078 0-2.229-3.096-4.038-6.942-4.079 2.69-2.747 3.601-6.217 2.026-7.792-1.577-1.576-5.045-.666-7.794 2.024-.04-3.846-1.85-6.941-4.079-6.941-2.228 0-4.038 3.096-4.077 6.941-2.749-2.69-6.218-3.601-7.793-2.024-1.575 1.574-.666 5.046 2.024 7.792-3.846.041-6.941 1.851-6.941 4.079 0 2.228 3.096 4.039 6.941 4.078-2.69 2.748-3.599 6.218-2.024 7.794 1.575 1.574 5.044.665 7.793-2.026.039 3.847 1.849 6.943 4.077 6.943 2.229-.001 4.04-3.097 4.079-6.943 2.748 2.69 6.216 3.6 7.793 2.025z"/><path fill="#FFE319" d="M139.247 544.906c-3.31 0-6.009-2.7-6.009-6.011 0-3.312 2.7-6.011 6.009-6.011 3.312 0 6.011 2.7 6.011 6.011s-2.699 6.011-6.011 6.011z"/></g><g><path fill="#2A742E" d="M205.852 340.148h3.544v52.005h-3.544z"/><path fill="#6E9E34" d="M181.74 355.934c.836 12.929 12.151 20.65 24.532 17.915-1.454-12.742-11.714-21.068-24.532-17.915z"/><path fill="#6E9E34" d="M240.412 339.572c-2.172 16.569-17.391 25.549-33.09 20.978 2.949-16.274 16.862-26.121 33.09-20.978z"/><path fill="#F16266" d="M202.333 333.521c.308.563.474 1.163.474 1.786 0 .622-.166 1.221-.475 1.785.618.18 1.159.487 1.599.928.439.438.745.98.926 1.597.563-.308 1.163-.474 1.786-.474.622 0 1.22.167 1.784.474.18-.617.486-1.159.926-1.597.441-.441.982-.747 1.598-.928-.307-.564-.476-1.163-.476-1.785 0-.624.168-1.222.476-1.786-.616-.181-1.157-.485-1.598-.926-.439-.441-.746-.982-.926-1.599-.563.309-1.163.477-1.784.477-.623-.001-1.224-.167-1.786-.477-.18.616-.486 1.159-.926 1.599-.44.44-.981.745-1.598.926zm-12.906 19c-2.284-2.286-.964-7.316 2.938-11.301-5.577-.058-10.067-2.685-10.067-5.914.001-3.232 4.49-5.855 10.067-5.915-3.902-3.984-5.221-9.016-2.938-11.3 2.286-2.286 7.316-.965 11.301 2.937.059-5.577 2.683-10.066 5.916-10.066 3.23 0 5.855 4.489 5.912 10.066 3.986-3.902 9.017-5.222 11.301-2.937 2.283 2.284.965 7.317-2.937 11.3 5.577.058 10.066 2.683 10.066 5.915 0 3.229-4.489 5.856-10.066 5.914 3.902 3.984 5.22 9.016 2.937 11.301-2.285 2.284-7.315.965-11.301-2.937-.057 5.577-2.682 10.068-5.912 10.068-3.232-.001-5.856-4.491-5.916-10.068-3.984 3.9-9.015 5.221-11.301 2.937z"/><path fill="#FFE319" d="M206.643 344.022c4.8 0 8.714-3.916 8.714-8.716 0-4.802-3.915-8.716-8.714-8.716-4.802 0-8.717 3.915-8.717 8.716.001 4.8 3.915 8.716 8.717 8.716z"/></g><g><path fill="#2A742E" d="M500.652 564.532h2.104v63.888h-2.104z"/><path fill="#6E9E34" d="M519.056 603.442c-.576 8.916-8.379 14.241-16.917 12.354 1.003-8.785 8.078-14.527 16.917-12.354z"/><path fill="#6E9E34" d="M478.596 592.159c1.497 11.426 11.993 17.619 22.819 14.468-2.033-11.224-11.628-18.015-22.819-14.468z"/><path fill="#C0CE47" d="M518.842 561.319c-.576 8.916-8.379 14.24-16.917 12.354 1.003-8.786 8.078-14.527 16.917-12.354z"/><path fill="#C0CE47" d="M497.565 554.216c-2.632 4.765-.376 10.06 4.625 11.895 2.371-4.839.625-10.108-4.625-11.895z"/><path fill="#20C4F4" d="M504.854 587.986c-.212.389-.326.802-.326 1.231 0 .429.114.842.326 1.23-.425.125-.798.336-1.102.64-.303.303-.514.676-.639 1.102-.388-.212-.802-.327-1.231-.327-.429 0-.842.115-1.23.327-.124-.426-.334-.799-.638-1.102-.305-.304-.678-.515-1.103-.64.211-.389.327-.802.327-1.23 0-.43-.116-.843-.327-1.231.425-.125.798-.335 1.103-.639.302-.304.514-.677.638-1.102.389.212.802.328 1.23.328.43-.001.844-.115 1.231-.328.125.424.336.798.639 1.102.305.304.678.514 1.102.639zm8.902 13.103c1.574-1.576.664-5.045-2.026-7.793 3.846-.04 6.942-1.852 6.942-4.078-.001-2.229-3.097-4.038-6.942-4.079 2.69-2.747 3.601-6.217 2.026-7.792-1.577-1.576-5.046-.666-7.794 2.024-.04-3.846-1.85-6.941-4.079-6.941-2.228 0-4.038 3.096-4.077 6.941-2.748-2.69-6.218-3.601-7.793-2.024-1.575 1.574-.666 5.046 2.024 7.792-3.847.041-6.942 1.85-6.942 4.079 0 2.227 3.096 4.038 6.942 4.078-2.69 2.747-3.6 6.218-2.024 7.793s5.045.665 7.793-2.025c.039 3.846 1.85 6.943 4.077 6.943 2.229-.001 4.039-3.098 4.079-6.943 2.748 2.69 6.217 3.6 7.794 2.025z"/><path fill="#FFE319" d="M501.883 595.229c-3.311 0-6.01-2.701-6.01-6.011 0-3.312 2.7-6.011 6.01-6.011 3.312 0 6.011 2.699 6.011 6.011 0 3.309-2.7 6.011-6.011 6.011z"/></g><g><path fill="#2A742E" d="M430.738 252.609h2.103v63.888h-2.103z"/><path fill="#6E9E34" d="M449.141 291.52c-.576 8.916-8.379 14.241-16.917 12.354 1.003-8.787 8.078-14.529 16.917-12.354z"/><path fill="#6E9E34" d="M408.681 280.236c1.498 11.426 11.993 17.619 22.819 14.468-2.033-11.224-11.628-18.015-22.819-14.468z"/><path fill="#C0CE47" d="M448.928 249.396c-.576 8.917-8.38 14.241-16.918 12.355 1.003-8.787 8.078-14.529 16.918-12.355z"/><path fill="#C0CE47" d="M427.65 242.293c-2.631 4.765-.375 10.059 4.625 11.895 2.371-4.839.625-10.108-4.625-11.895z"/><path fill="#20C4F4" d="M434.94 276.063c-.212.388-.327.802-.327 1.231s.115.842.327 1.23c-.426.125-.799.336-1.103.64-.303.302-.514.676-.638 1.101-.389-.212-.803-.327-1.232-.327-.429 0-.842.115-1.23.327-.124-.425-.334-.799-.639-1.101-.303-.304-.677-.515-1.102-.64.212-.389.328-.801.328-1.23 0-.43-.116-.842-.328-1.231.425-.125.799-.335 1.102-.639.303-.304.515-.677.639-1.102.389.212.802.328 1.23.328.43 0 .845-.114 1.232-.328.124.424.335.798.638 1.102.305.305.678.514 1.103.639zm8.901 13.103c1.574-1.576.664-5.045-2.026-7.793 3.847-.04 6.942-1.851 6.942-4.078 0-2.229-3.096-4.038-6.942-4.079 2.69-2.747 3.601-6.217 2.026-7.792-1.576-1.577-5.046-.666-7.794 2.025-.04-3.846-1.85-6.942-4.079-6.942-2.228 0-4.038 3.096-4.077 6.942-2.748-2.691-6.218-3.601-7.793-2.025-1.575 1.575-.666 5.045 2.024 7.792-3.846.041-6.941 1.851-6.941 4.079 0 2.227 3.096 4.039 6.941 4.078-2.69 2.748-3.6 6.218-2.024 7.794 1.575 1.575 5.045.665 7.793-2.026.039 3.846 1.85 6.943 4.077 6.943 2.229 0 4.039-3.097 4.079-6.943 2.748 2.69 6.218 3.6 7.794 2.025z"/><path fill="#FFE319" d="M431.968 283.306c-3.311 0-6.009-2.701-6.009-6.011 0-3.312 2.699-6.01 6.009-6.01 3.312-.001 6.011 2.699 6.011 6.01 0 3.309-2.7 6.011-6.011 6.011z"/></g><path fill="#DA9AC5" d="M429.579 464.792c.194.353.3.731.3 1.122s-.105.768-.3 1.121c.388.113.729.305 1.005.582.276.276.468.618.582 1.005.354-.194.73-.299 1.121-.299.392 0 .768.104 1.122.299.113-.387.306-.729.582-1.005.276-.277.617-.469 1.005-.582-.194-.354-.3-.73-.3-1.121s.105-.769.3-1.122c-.388-.113-.729-.306-1.005-.581-.276-.278-.469-.618-.582-1.006-.354.193-.73.3-1.122.3-.391 0-.767-.105-1.121-.3-.114.388-.306.728-.582 1.006-.276.275-.617.468-1.005.581zm-8.108 11.939c-1.436-1.436-.607-4.598 1.845-7.102-3.505-.036-6.326-1.686-6.326-3.716s2.821-3.681 6.326-3.716c-2.452-2.504-3.28-5.666-1.845-7.102 1.435-1.437 4.598-.607 7.101 1.846.037-3.506 1.686-6.326 3.716-6.326 2.029 0 3.681 2.82 3.717 6.326 2.504-2.453 5.665-3.281 7.101-1.846s.607 4.598-1.846 7.102c3.506.035 6.326 1.686 6.326 3.716s-2.821 3.68-6.326 3.716c2.453 2.504 3.281 5.666 1.846 7.102s-4.597.606-7.101-1.846c-.036 3.504-1.688 6.326-3.717 6.326-2.029-.001-3.68-2.822-3.716-6.326-2.504 2.453-5.667 3.282-7.101 1.846z"/><path fill="#FFE319" d="M432.287 471.391c3.018 0 5.477-2.46 5.477-5.477 0-3.018-2.459-5.478-5.477-5.478-3.016-.001-5.477 2.46-5.477 5.478.002 3.017 2.461 5.477 5.477 5.477z"/><path fill="#DA9AC5" d="M641.669 405.878c.194.354.299.731.299 1.121 0 .392-.105.769-.299 1.122.388.113.729.306 1.005.582s.468.618.581 1.005c.354-.194.731-.299 1.122-.299.392 0 .768.104 1.122.299.112-.387.305-.729.581-1.005.277-.277.618-.469 1.006-.582-.194-.354-.3-.73-.3-1.122 0-.39.105-.768.3-1.12-.388-.114-.729-.307-1.006-.582-.275-.278-.469-.618-.581-1.006-.354.193-.73.3-1.122.3-.391 0-.768-.105-1.122-.3-.113.388-.305.729-.581 1.006-.277.275-.617.468-1.005.581zm-8.109 11.939c-1.435-1.435-.606-4.598 1.846-7.102-3.505-.036-6.326-1.686-6.326-3.717 0-2.029 2.821-3.68 6.326-3.715-2.452-2.504-3.28-5.666-1.846-7.102 1.436-1.436 4.599-.606 7.101 1.846.037-3.506 1.687-6.326 3.717-6.326 2.029 0 3.681 2.82 3.717 6.326 2.504-2.452 5.664-3.281 7.101-1.846 1.436 1.436.607 4.598-1.846 7.102 3.505.035 6.326 1.686 6.326 3.715.001 2.031-2.821 3.681-6.326 3.717 2.453 2.504 3.281 5.667 1.846 7.102-1.437 1.436-4.597.606-7.101-1.846-.036 3.505-1.688 6.326-3.717 6.326-2.03-.001-3.68-2.821-3.717-6.326-2.503 2.453-5.666 3.282-7.101 1.846z"/><path fill="#FFE319" d="M644.377 412.477c3.017 0 5.477-2.461 5.477-5.478s-2.46-5.477-5.477-5.477c-3.017-.001-5.477 2.46-5.477 5.477s2.46 5.478 5.477 5.478z"/><g><path fill="#DA9AC5" d="M423.396 66.448c.194.352.3.731.3 1.121 0 .391-.105.769-.3 1.122.388.112.729.305 1.005.581.276.277.468.618.582 1.005.354-.194.73-.298 1.122-.298.391 0 .768.104 1.121.298.113-.387.306-.728.582-1.005.276-.276.617-.468 1.005-.581-.193-.354-.3-.731-.3-1.122 0-.39.106-.768.3-1.121-.388-.114-.729-.306-1.005-.582-.276-.278-.469-.618-.582-1.006-.354.194-.73.3-1.121.3-.392 0-.768-.105-1.122-.3-.114.388-.306.729-.582 1.006-.276.276-.618.468-1.005.582zm-8.109 11.939c-1.436-1.436-.607-4.598 1.845-7.102-3.504-.036-6.326-1.686-6.326-3.716.001-2.03 2.821-3.679 6.326-3.716-2.452-2.504-3.28-5.666-1.845-7.102 1.436-1.436 4.598-.606 7.101 1.846.037-3.506 1.687-6.326 3.717-6.326 2.028 0 3.68 2.82 3.716 6.326 2.504-2.453 5.665-3.281 7.102-1.846 1.435 1.436.606 4.598-1.847 7.102 3.506.036 6.327 1.686 6.327 3.716s-2.821 3.681-6.327 3.716c2.453 2.504 3.281 5.666 1.847 7.102-1.437 1.435-4.598.606-7.102-1.846-.036 3.504-1.688 6.326-3.716 6.326-2.03 0-3.681-2.821-3.717-6.326-2.503 2.452-5.666 3.281-7.101 1.846z"/><path fill="#FFE319" d="M426.104 73.046c3.017 0 5.477-2.46 5.477-5.478 0-3.017-2.46-5.477-5.477-5.477s-5.477 2.461-5.477 5.477c.001 3.018 2.461 5.478 5.477 5.478z"/></g><path fill="#DA9AC5" d="M280.331 243.037c.194.353.299.731.299 1.121 0 .391-.105.769-.299 1.122.388.113.729.305 1.005.582.277.277.468.618.582 1.005.355-.194.731-.298 1.122-.298s.768.104 1.122.298c.113-.387.306-.728.582-1.005.277-.276.617-.469 1.005-.582-.194-.354-.3-.73-.3-1.122 0-.39.106-.768.3-1.121-.388-.114-.728-.306-1.005-.582-.276-.277-.469-.617-.582-1.005-.354.193-.73.299-1.122.299s-.767-.105-1.122-.299c-.113.388-.305.728-.582 1.005-.276.276-.617.468-1.005.582zm-8.109 11.94c-1.435-1.436-.607-4.598 1.846-7.102-3.505-.037-6.326-1.686-6.326-3.717 0-2.03 2.821-3.679 6.326-3.715-2.453-2.504-3.281-5.666-1.846-7.102 1.436-1.435 4.598-.606 7.101 1.846.037-3.505 1.686-6.326 3.716-6.326 2.029 0 3.681 2.821 3.716 6.326 2.504-2.452 5.665-3.281 7.101-1.846 1.436 1.436.607 4.598-1.846 7.102 3.505.036 6.327 1.686 6.327 3.715 0 2.031-2.821 3.681-6.327 3.717 2.453 2.504 3.281 5.666 1.846 7.102-1.436 1.435-4.597.606-7.101-1.847-.036 3.505-1.687 6.326-3.716 6.326-2.03 0-3.68-2.821-3.716-6.326-2.503 2.453-5.666 3.282-7.101 1.847z"/><path fill="#FFE319" d="M283.04 249.635c3.017 0 5.477-2.46 5.477-5.477 0-3.017-2.459-5.477-5.477-5.477-3.017 0-5.477 2.46-5.477 5.477 0 3.017 2.459 5.477 5.477 5.477z"/><g><path fill="#46C2C9" d="M373.947 57.874c0 3.663-2.97 6.632-6.633 6.632s-6.633-2.969-6.633-6.632c.001-2.329 5.437-12.121 6.633-14.514 1.196 2.39 6.633 12.188 6.633 14.514z"/><circle fill="#FFF" cx="371.663" cy="59.863" r="1.032"/></g><g><path fill="#46C2C9" d="M504.219 93.705c0 4.885-3.96 8.844-8.845 8.844-4.884 0-8.844-3.959-8.844-8.844.001-3.105 7.249-16.162 8.844-19.353 1.594 3.189 8.845 16.252 8.845 19.353z"/><circle fill="#FFF" cx="501.173" cy="96.358" r="1.376"/></g><g><path fill="#46C2C9" d="M380.986 199.82c0 3.664-2.971 6.632-6.633 6.632-3.663 0-6.632-2.969-6.632-6.632 0-2.33 5.436-12.121 6.632-14.514 1.196 2.392 6.633 12.189 6.633 14.514z"/><circle fill="#FFF" cx="378.702" cy="201.81" r="1.032"/></g><g><path fill="#46C2C9" d="M386.144 237.711c0 3.664-2.97 6.633-6.633 6.633-3.662 0-6.633-2.969-6.633-6.632.001-2.329 5.437-12.121 6.633-14.513 1.195 2.39 6.633 12.188 6.633 14.512z"/><circle fill="#FFF" cx="383.859" cy="239.702" r="1.032"/></g><g><path fill="#46C2C9" d="M292.127 199.909c0 3.663-2.97 6.632-6.633 6.632s-6.632-2.969-6.632-6.632c0-2.329 5.436-12.121 6.632-14.514 1.195 2.391 6.633 12.189 6.633 14.514z"/><circle fill="#FFF" cx="289.843" cy="201.899" r="1.032"/></g><g><path fill="#46C2C9" d="M107.535 187.868c0 3.664-2.97 6.632-6.633 6.632s-6.632-2.969-6.632-6.632c0-2.329 5.437-12.121 6.632-14.514 1.195 2.391 6.633 12.189 6.633 14.514z"/><circle fill="#FFF" cx="105.25" cy="189.858" r="1.032"/></g><g><path fill="#46C2C9" d="M65.804 279.675c0 3.664-2.97 6.633-6.633 6.633s-6.633-2.969-6.633-6.632c0-2.329 5.437-12.121 6.633-14.514 1.195 2.39 6.633 12.188 6.633 14.513z"/><circle fill="#FFF" cx="63.52" cy="281.665" r="1.031"/></g><g><path fill="#46C2C9" d="M69.113 441.439c0 3.664-2.97 6.633-6.633 6.633s-6.633-2.969-6.633-6.632c0-2.329 5.437-12.121 6.633-14.514 1.195 2.391 6.633 12.188 6.633 14.513z"/><circle fill="#FFF" cx="66.829" cy="443.43" r="1.032"/></g><g><path fill="#46C2C9" d="M151.101 452.012c0 3.664-2.97 6.633-6.633 6.633s-6.632-2.969-6.632-6.633c0-2.328 5.436-12.12 6.632-14.513 1.195 2.391 6.633 12.188 6.633 14.513z"/><circle fill="#FFF" cx="148.816" cy="454.001" r="1.032"/></g><g><path fill="#46C2C9" d="M246.345 391.135c0 3.663-2.97 6.632-6.633 6.632s-6.632-2.969-6.632-6.632c0-2.329 5.436-12.121 6.632-14.514 1.195 2.391 6.633 12.189 6.633 14.514z"/><circle fill="#FFF" cx="244.06" cy="393.125" r="1.032"/></g><g><path fill="#46C2C9" d="M363.19 385.243c0 3.664-2.97 6.633-6.633 6.633s-6.632-2.969-6.632-6.633c0-2.328 5.436-12.12 6.632-14.514 1.196 2.392 6.633 12.189 6.633 14.514z"/><circle fill="#FFF" cx="360.906" cy="387.233" r="1.032"/></g><g><path fill="#46C2C9" d="M539.932 411.755c0 3.663-2.97 6.632-6.633 6.632s-6.633-2.969-6.633-6.632c.001-2.329 5.437-12.121 6.633-14.514 1.195 2.391 6.633 12.189 6.633 14.514z"/><circle fill="#FFF" cx="537.647" cy="413.745" r="1.032"/></g><g><path fill="#46C2C9" d="M598.112 413.254c0 3.664-2.971 6.633-6.633 6.633-3.663 0-6.633-2.969-6.633-6.633 0-2.329 5.437-12.12 6.633-14.514 1.195 2.391 6.633 12.189 6.633 14.514z"/><circle fill="#FFF" cx="595.828" cy="415.244" r="1.032"/></g><g><path fill="#46C2C9" d="M370.063 556.093c0 3.664-2.97 6.633-6.633 6.633s-6.632-2.969-6.632-6.632c0-2.329 5.436-12.121 6.632-14.514 1.196 2.391 6.633 12.188 6.633 14.513z"/><circle fill="#FFF" cx="367.779" cy="558.083" r="1.032"/></g><g><path fill="#46C2C9" d="M508.76 264.006c0 3.664-2.97 6.632-6.633 6.632s-6.633-2.969-6.633-6.632c0-2.329 5.437-12.121 6.633-14.514 1.195 2.391 6.633 12.189 6.633 14.514z"/><circle fill="#FFF" cx="506.475" cy="265.996" r="1.032"/></g><g><path fill="#46C2C9" d="M556.933 257.305c0 3.664-2.97 6.632-6.633 6.632s-6.633-2.969-6.633-6.632c0-2.329 5.437-12.121 6.633-14.514 1.195 2.391 6.633 12.189 6.633 14.514z"/><circle fill="#FFF" cx="554.648" cy="259.295" r="1.032"/></g><g><path fill="#46C2C9" d="M651.087 262.702c0 3.664-2.97 6.633-6.633 6.633s-6.633-2.969-6.633-6.632c.001-2.329 5.437-12.121 6.633-14.514 1.195 2.39 6.633 12.188 6.633 14.513z"/><circle fill="#FFF" cx="648.803" cy="264.692" r="1.032"/></g><g><path fill="#46C2C9" d="M555.643 587.514c0 3.663-2.97 6.632-6.633 6.632-3.662 0-6.632-2.969-6.632-6.632 0-2.329 5.437-12.121 6.632-14.514 1.195 2.391 6.633 12.188 6.633 14.514z"/><circle fill="#FFF" cx="553.358" cy="589.503" r="1.032"/></g><path fill="#C0CE47" d="M165.693 113.983c-.577 8.916-8.38 14.241-16.917 12.354 1.003-8.786 8.078-14.528 16.917-12.354z"/><path fill="#6E9E34" d="M303.117 48.525c-.577 8.916-8.379 14.241-16.917 12.354 1.002-8.787 8.078-14.528 16.917-12.354z"/><path fill="#C0CE47" d="M389.342 82.809c.577 8.916 8.38 14.241 16.918 12.354-1.003-8.787-8.078-14.528-16.918-12.354z"/><path fill="#6E9E34" d="M463.475 66.362c.576 8.916 8.38 14.241 16.917 12.355-1.003-8.787-8.079-14.529-16.917-12.355z"/><path fill="#6E9E34" d="M502.731 157.924c-.577 8.916-8.38 14.241-16.918 12.354 1.003-8.786 8.079-14.528 16.918-12.354z"/><path fill="#6E9E34" d="M461 91.646c-.576 8.916-8.38 14.24-16.917 12.354 1.002-8.786 8.078-14.528 16.917-12.354z"/><path fill="#6E9E34" d="M334.147 185.282c-.362 5.61-5.272 8.96-10.645 7.773.632-5.529 5.084-9.141 10.645-7.773z"/><path fill="#6E9E34" d="M210.672 186.71c-.363 5.61-5.272 8.961-10.645 7.774.631-5.529 5.083-9.142 10.645-7.774z"/><path fill="#6E9E34" d="M247.649 188.674c.362 5.61 5.272 8.96 10.645 7.773-.631-5.528-5.084-9.141-10.645-7.773z"/><path fill="#6E9E34" d="M204.853 288.217c.363 5.61 5.273 8.96 10.646 7.773-.632-5.529-5.084-9.141-10.646-7.773z"/><path fill="#6E9E34" d="M45.786 372.66c.362 5.609 5.272 8.96 10.645 7.773-.631-5.529-5.083-9.142-10.645-7.773z"/><path fill="#6E9E34" d="M306.92 355.885c-.576 8.916-8.38 14.241-16.917 12.354 1.002-8.787 8.078-14.529 16.917-12.354z"/><path fill="#6E9E34" d="M249.893 427.944c-.576 8.916-8.38 14.24-16.917 12.354 1.002-8.786 8.078-14.528 16.917-12.354z"/><path fill="#6E9E34" d="M449.709 379.831c-.576 8.916-8.38 14.241-16.918 12.354 1.003-8.786 8.079-14.528 16.918-12.354z"/><path fill="#6E9E34" d="M457.292 491.557c-.576 8.915-8.38 14.24-16.917 12.354 1.003-8.787 8.078-14.529 16.917-12.354z"/><path fill="#6E9E34" d="M573.155 397.294c-.576 8.916-8.379 14.241-16.917 12.354 1.003-8.786 8.078-14.528 16.917-12.354z"/><path fill="#6E9E34" d="M663.875 348.083c-.576 8.916-8.379 14.24-16.917 12.354 1.003-8.786 8.078-14.528 16.917-12.354z"/><path fill="#6E9E34" d="M371.281 652.246c-.577 8.916-8.38 14.241-16.917 12.354 1.002-8.787 8.077-14.529 16.917-12.354z"/><path fill="#6E9E34" d="M268.979 635.677c-.576 8.916-8.38 14.241-16.917 12.354 1.002-8.787 8.079-14.529 16.917-12.354z"/><path fill="#6E9E34" d="M167.354 577.499c-.577 8.915-8.38 14.24-16.917 12.354 1.002-8.787 8.078-14.529 16.917-12.354z"/><path fill="#6E9E34" d="M72.967 484.095c.576 8.916 8.379 14.24 16.917 12.354-1.002-8.787-8.078-14.529-16.917-12.354z"/><path fill="#6E9E34" d="M134.348 484.462c.576 8.916 8.379 14.24 16.917 12.354-1.003-8.787-8.078-14.529-16.917-12.354z"/><path fill="#C0CE47" d="M181.529 538.247c-.577 8.916-8.379 14.24-16.917 12.354 1.002-8.787 8.077-14.528 16.917-12.354z"/><path fill="#C0CE47" d="M277.326 531.839c-.577 8.916-8.38 14.241-16.917 12.354 1.003-8.786 8.078-14.528 16.917-12.354z"/><path fill="#C0CE47" d="M451.685 538.427c-.412 6.365-5.983 10.167-12.079 8.82.716-6.273 5.767-10.373 12.079-8.82z"/><path fill="#C0CE47" d="M355.128 610.795c.411 6.365 5.982 10.167 12.078 8.82-.716-6.273-5.768-10.373-12.078-8.82z"/><path fill="#C0CE47" d="M604.529 390.359c.412 6.365 5.982 10.167 12.079 8.82-.716-6.273-5.768-10.372-12.079-8.82z"/></g></svg>